<?xml version="1.0" encoding="UTF-8" standalone="no"?>
<!-- Created with Inkscape (http://www.inkscape.org/) -->

<svg
   sodipodi:docname="logo_fcm_roma_8.svg"
   inkscape:version="1.1.2 (0a00cf5339, 2022-02-04)"
   id="svg5"
   version="1.1"
   viewBox="0 0 297 100"
   height="100mm"
   width="297mm"
   xmlns:inkscape="http://www.inkscape.org/namespaces/inkscape"
   xmlns:sodipodi="http://sodipodi.sourceforge.net/DTD/sodipodi-0.dtd"
   xmlns="http://www.w3.org/2000/svg"
   xmlns:svg="http://www.w3.org/2000/svg">
  <sodipodi:namedview
     id="namedview7"
     pagecolor="#ffffff"
     bordercolor="#666666"
     borderopacity="1.0"
     inkscape:pageshadow="2"
     inkscape:pageopacity="0.50196078"
     inkscape:pagecheckerboard="true"
     inkscape:document-units="mm"
     showgrid="true"
     inkscape:zoom="0.31723122"
     inkscape:cx="283.70474"
     inkscape:cy="498.05943"
     inkscape:window-width="1366"
     inkscape:window-height="704"
     inkscape:window-x="0"
     inkscape:window-y="0"
     inkscape:window-maximized="1"
     inkscape:current-layer="layer1"
     inkscape:snap-bbox="true"
     inkscape:snap-global="true"
     inkscape:bbox-nodes="true" />
  <defs
     id="defs2">
    <rect
       x="31.507038"
       y="128.12311"
       width="310.01074"
       height="68.904732"
       id="rect121035" />
    <rect
       x="297.71375"
       y="266.56018"
       width="733.28381"
       height="323.7547"
       id="rect39208" />
    <inkscape:path-effect
       effect="bspline"
       id="path-effect12488"
       is_visible="true"
       lpeversion="1"
       weight="33.333333"
       steps="2"
       helper_size="0"
       apply_no_weight="true"
       apply_with_weight="true"
       only_selected="false" />
    <inkscape:path-effect
       effect="bspline"
       id="path-effect12451"
       is_visible="true"
       lpeversion="1"
       weight="33.333333"
       steps="2"
       helper_size="0"
       apply_no_weight="true"
       apply_with_weight="true"
       only_selected="false" />
    <inkscape:path-effect
       effect="bspline"
       id="path-effect12414"
       is_visible="true"
       lpeversion="1"
       weight="33.333333"
       steps="2"
       helper_size="0"
       apply_no_weight="true"
       apply_with_weight="true"
       only_selected="false" />
    <inkscape:path-effect
       effect="bspline"
       id="path-effect12297"
       is_visible="true"
       lpeversion="1"
       weight="33.333333"
       steps="2"
       helper_size="0"
       apply_no_weight="true"
       apply_with_weight="true"
       only_selected="false" />
    <inkscape:path-effect
       effect="bspline"
       id="path-effect12260"
       is_visible="true"
       lpeversion="1"
       weight="33.333333"
       steps="2"
       helper_size="0"
       apply_no_weight="true"
       apply_with_weight="true"
       only_selected="false" />
    <inkscape:path-effect
       effect="bspline"
       id="path-effect12223"
       is_visible="true"
       lpeversion="1"
       weight="33.333333"
       steps="2"
       helper_size="0"
       apply_no_weight="true"
       apply_with_weight="true"
       only_selected="false" />
    <inkscape:path-effect
       effect="bspline"
       id="path-effect12011"
       is_visible="true"
       lpeversion="1"
       weight="33.333333"
       steps="2"
       helper_size="0"
       apply_no_weight="true"
       apply_with_weight="true"
       only_selected="false" />
    <inkscape:path-effect
       effect="bspline"
       id="path-effect11837"
       is_visible="true"
       lpeversion="1"
       weight="33.333333"
       steps="2"
       helper_size="0"
       apply_no_weight="true"
       apply_with_weight="true"
       only_selected="false" />
    <inkscape:path-effect
       effect="bspline"
       id="path-effect11070"
       is_visible="true"
       lpeversion="1"
       weight="33.333333"
       steps="2"
       helper_size="0"
       apply_no_weight="true"
       apply_with_weight="true"
       only_selected="false" />
    <inkscape:path-effect
       effect="bspline"
       id="path-effect10953"
       is_visible="true"
       lpeversion="1"
       weight="33.333333"
       steps="2"
       helper_size="0"
       apply_no_weight="true"
       apply_with_weight="true"
       only_selected="false" />
    <inkscape:path-effect
       effect="bspline"
       id="path-effect10545"
       is_visible="true"
       lpeversion="1"
       weight="33.333333"
       steps="2"
       helper_size="0"
       apply_no_weight="true"
       apply_with_weight="true"
       only_selected="false" />
    <inkscape:path-effect
       effect="pts2ellipse"
       id="path-effect5057"
       is_visible="true"
       lpeversion="1"
       method="perspective_circle"
       gen_arc="false"
       arc_other="false"
       slice_arc="false"
       gen_isometric_frame="true"
       draw_axes="false"
       gen_perspective_frame="false"
       draw_perspective_axes="false"
       rot_axes="0"
       draw_ori_path="false" />
    <inkscape:path-effect
       effect="pts2ellipse"
       id="path-effect3926"
       is_visible="true"
       lpeversion="1"
       method="auto"
       gen_arc="false"
       arc_other="false"
       slice_arc="false"
       gen_isometric_frame="false"
       draw_axes="false"
       gen_perspective_frame="false"
       draw_perspective_axes="false"
       rot_axes="0"
       draw_ori_path="false" />
    <filter
       style="color-interpolation-filters:sRGB"
       inkscape:label="Greyscale"
       id="filter34262"
       x="-0.00029918665"
       y="-0.00029724647"
       width="1.0005984"
       height="1.0005945">
      <feColorMatrix
         values="0.21 0.72 0.072 0 0 0.21 0.72 0.072 0 0 0.21 0.72 0.072 0 0 0 0 0 1 0 "
         id="feColorMatrix34260" />
    </filter>
    <rect
       x="297.71375"
       y="266.56018"
       width="733.28381"
       height="323.7547"
       id="rect39208-4" />
    <rect
       x="297.71375"
       y="266.56018"
       width="733.28381"
       height="323.7547"
       id="rect39208-4-1" />
    <rect
       x="297.71375"
       y="266.56018"
       width="733.28381"
       height="323.7547"
       id="rect39208-4-1-5" />
    <filter
       style="color-interpolation-filters:sRGB"
       inkscape:label="Greyscale"
       id="filter80174"
       x="-8.6346925e-05"
       y="-0.00029205345"
       width="1.0007137"
       height="1.0024141">
      <feColorMatrix
         values="0.21 0.72 0.072 0 0 0.21 0.72 0.072 0 0 0.21 0.72 0.072 0 0 0 0 0 1 0 "
         id="feColorMatrix80172" />
    </filter>
    <rect
       x="297.71375"
       y="266.56018"
       width="733.28381"
       height="323.7547"
       id="rect39208-4-1-0" />
    <rect
       x="297.71375"
       y="266.56018"
       width="733.28381"
       height="323.7547"
       id="rect39208-4-1-1" />
    <rect
       x="297.71375"
       y="266.56018"
       width="733.28381"
       height="323.7547"
       id="rect39208-4-1-4" />
    <rect
       x="297.71375"
       y="266.56018"
       width="733.28381"
       height="323.7547"
       id="rect39208-4-1-1-8" />
    <filter
       style="color-interpolation-filters:sRGB"
       inkscape:label="Invert"
       id="filter82457"
       x="-0.01105526"
       y="-0.032340083"
       width="1.0221105"
       height="1.0646802">
      <feColorMatrix
         values="1 0 0 0 0 0 1 0 0 0 0 0 1 0 0 -0.21 -0.72 -0.07 1.66892 0 "
         result="fbSourceGraphic"
         id="feColorMatrix82455" />
      <feColorMatrix
         result="fbSourceGraphicAlpha"
         in="fbSourceGraphic"
         values="0 0 0 -1 0 0 0 0 -1 0 0 0 0 -1 0 0 0 0 1 0"
         id="feColorMatrix82477" />
      <feColorMatrix
         id="feColorMatrix82479"
         values="1 0 0 0 0 0 1 0 0 0 0 0 1 0 0 -0.21 -0.72 -0.07 1.29778 0 "
         result="fbSourceGraphic"
         in="fbSourceGraphic" />
      <feColorMatrix
         result="fbSourceGraphicAlpha"
         in="fbSourceGraphic"
         values="0 0 0 -1 0 0 0 0 -1 0 0 0 0 -1 0 0 0 0 1 0"
         id="feColorMatrix82499" />
      <feColorMatrix
         id="feColorMatrix82501"
         values="1 0 0 0 0 0 1 0 0 0 0 0 1 0 0 -0.21 -0.72 -0.07 1.03183 0 "
         result="fbSourceGraphic"
         in="fbSourceGraphic" />
      <feColorMatrix
         result="fbSourceGraphicAlpha"
         in="fbSourceGraphic"
         values="0 0 0 -1 0 0 0 0 -1 0 0 0 0 -1 0 0 0 0 1 0"
         id="feColorMatrix82521" />
      <feColorMatrix
         id="feColorMatrix82523"
         values="1 0 0 0 0 0 1 0 0 0 0 0 1 0 0 -0.21 -0.72 -0.07 1 0 "
         result="fbSourceGraphic"
         in="fbSourceGraphic" />
      <feColorMatrix
         result="fbSourceGraphicAlpha"
         in="fbSourceGraphic"
         values="0 0 0 -1 0 0 0 0 -1 0 0 0 0 -1 0 0 0 0 1 0"
         id="feColorMatrix82543" />
      <feColorMatrix
         id="feColorMatrix82545"
         values="1 0 0 0 0 0 1 0 0 0 0 0 1 0 0 -0.21 -0.72 -0.07 1.53347 0 "
         result="color2"
         in="fbSourceGraphic" />
    </filter>
    <rect
       x="297.71375"
       y="266.56018"
       width="733.28381"
       height="323.7547"
       id="rect39208-4-1-44" />
    <rect
       x="297.71375"
       y="266.56018"
       width="733.28381"
       height="323.7547"
       id="rect39208-4-1-1-4" />
    <rect
       x="297.71375"
       y="266.56018"
       width="733.28381"
       height="323.7547"
       id="rect39208-4-1-1-88" />
    <rect
       x="297.71375"
       y="266.56018"
       width="733.28381"
       height="323.7547"
       id="rect39208-4-1-05" />
    <rect
       x="31.507038"
       y="128.12311"
       width="310.01074"
       height="68.904732"
       id="rect121035-9" />
    <rect
       x="31.507038"
       y="128.12311"
       width="310.01074"
       height="68.904732"
       id="rect121035-9-2" />
    <rect
       x="31.507038"
       y="128.12311"
       width="310.01074"
       height="68.904732"
       id="rect121035-1" />
    <rect
       x="31.507038"
       y="128.12311"
       width="310.01074"
       height="68.904732"
       id="rect121035-1-0" />
    <rect
       x="31.507038"
       y="128.12311"
       width="310.01074"
       height="68.904732"
       id="rect121035-1-0-5" />
    <rect
       x="297.71375"
       y="266.56018"
       width="733.28381"
       height="323.7547"
       id="rect39208-8" />
  </defs>
  <g
     inkscape:label="Layer 1"
     inkscape:groupmode="layer"
     id="layer1">
    <g
       id="g10915"
       transform="rotate(18.488482,142.67969,104.88517)" />
    <g
       id="g158045"
       transform="matrix(1.650798,0,0,1.650798,-17.343875,-45.741133)">
      <g
         id="g34109"
         transform="matrix(0.29900777,0,0,0.29900777,90.57797,19.97407)">
        <path
           id="rect13339"
           style="mix-blend-mode:normal;fill:#7d1700;fill-opacity:1;stroke:#7d1700;stroke-width:0.1;stroke-miterlimit:4;stroke-dasharray:none;stroke-opacity:1"
           d="m -167.51107,42.878253 a 16.740753,24.062261 82.034487 0 0 -2.5383,-1.765144 16.740753,24.062261 82.034487 0 0 -2.93962,-1.433771 16.740753,24.062261 82.034487 0 0 -3.26985,-1.066458 16.740753,24.062261 82.034487 0 0 -3.51838,-0.673258 16.740753,24.062261 82.034487 0 0 -3.68186,-0.263393 16.740753,24.062261 82.034487 0 0 -3.75338,0.152786 16.740753,24.062261 82.034487 0 0 -3.733,0.565348 16.740753,24.062261 82.034487 0 0 -3.62043,0.963964 16.740753,24.062261 82.034487 0 0 -3.41935,1.339123 16.740753,24.062261 82.034487 0 0 -3.13309,1.680918 16.740753,24.062261 82.034487 0 0 -2.77034,1.981146 16.740753,24.062261 82.034487 0 0 -2.3392,2.233386 16.740753,24.062261 82.034487 0 0 -1.85083,2.430109 16.740753,24.062261 82.034487 0 0 -1.31646,2.566343 16.740753,24.062261 82.034487 0 0 -0.74952,2.640705 16.740753,24.062261 82.034487 0 0 -0.16476,2.649377 16.740753,24.062261 82.034487 0 0 0.42495,2.592738 16.740753,24.062261 82.034487 0 0 1.00327,2.472306 16.740753,24.062261 82.034487 0 0 1.55768,2.291365 16.740753,24.062261 82.034487 0 0 0.65892,0.737616 16.740753,24.062261 82.034487 0 0 0.71828,0.706858 16.740753,24.062261 82.034487 0 0 0.77601,0.674819 16.740753,24.062261 82.034487 0 0 0.83081,0.63981 16.740753,24.062261 82.034487 0 0 0.88369,0.603905 16.740753,24.062261 82.034487 0 0 0.93373,0.565764 16.740753,24.062261 82.034487 0 0 0.98094,0.525373 16.740753,24.062261 82.034487 0 0 1.02547,0.484188 16.740753,24.062261 82.034487 0 0 1.06726,0.441481 16.740753,24.062261 82.034487 0 0 1.10524,0.397738 16.740753,24.062261 82.034487 0 0 1.14041,0.351749 16.740753,24.062261 82.034487 0 0 1.17193,0.306177 16.740753,24.062261 82.034487 0 0 1.20061,0.258362 16.740753,24.062261 82.034487 0 0 1.22496,0.211042 16.740753,24.062261 82.034487 0 0 1.24654,0.16221 16.740753,24.062261 82.034487 0 0 1.264,0.11274 16.740753,24.062261 82.034487 0 0 1.27784,0.0637 16.740753,24.062261 82.034487 0 0 1.28796,0.01434 16.740753,24.062261 82.034487 0 0 1.29438,-0.03532 16.740753,24.062261 82.034487 0 0 1.29601,-0.0848 16.740753,24.062261 82.034487 0 0 1.29581,-0.134432 16.740753,24.062261 82.034487 0 0 1.28988,-0.18267 16.740753,24.062261 82.034487 0 0 1.28168,-0.231379 16.740753,24.062261 82.034487 0 0 1.26881,-0.279186 16.740753,24.062261 82.034487 0 0 1.25239,-0.325845 16.740753,24.062261 82.034487 0 0 1.23242,-0.371359 16.740753,24.062261 82.034487 0 0 1.20843,-0.416777 16.740753,24.062261 82.034487 0 0 1.18177,-0.459681 16.740753,24.062261 82.034487 0 0 1.15077,-0.502079 16.740753,24.062261 82.034487 0 0 3.13309,-1.680917 16.740753,24.062261 82.034487 0 0 2.77066,-1.98155 16.740753,24.062261 82.034487 0 0 2.33888,-2.232984 16.740753,24.062261 82.034487 0 0 1.85083,-2.430107 16.740753,24.062261 82.034487 0 0 1.31606,-2.566665 16.740753,24.062261 82.034487 0 0 0.74992,-2.640385 16.740753,24.062261 82.034487 0 0 0.16436,-2.649698 16.740753,24.062261 82.034487 0 0 -0.42455,-2.592415 16.740753,24.062261 82.034487 0 0 -1.00327,-2.472306 16.740753,24.062261 82.034487 0 0 -1.55768,-2.291367 16.740753,24.062261 82.034487 0 0 -2.07279,-2.053531 z" />
        <path
           id="path13473"
           style="mix-blend-mode:normal;fill:#a05f1b;fill-opacity:1;stroke:#a05f1b;stroke-width:0.1;stroke-miterlimit:4;stroke-dasharray:none;stroke-opacity:1"
           d="m -204.18206,42.49903 a 27.429336,46.222068 59.782583 0 0 -4.48621,2.596984 27.429336,46.222068 59.782583 0 0 -4.28665,2.879257 27.429336,46.222068 59.782583 0 0 -4.03348,3.125551 27.429336,46.222068 59.782583 0 0 -3.72965,3.332896 27.429336,46.222068 59.782583 0 0 -3.37844,3.497992 27.429336,46.222068 59.782583 0 0 -2.98521,3.619248 27.429336,46.222068 59.782583 0 0 -2.55498,3.69467 27.429336,46.222068 59.782583 0 0 -2.09144,3.723946 27.429336,46.222068 59.782583 0 0 -1.60204,3.706469 27.429336,46.222068 59.782583 0 0 -1.09305,3.641857 27.429336,46.222068 59.782583 0 0 -0.56982,3.531827 27.429336,46.222068 59.782583 0 0 -0.0392,3.377538 27.429336,46.222068 59.782583 0 0 0.49168,3.180557 27.429336,46.222068 59.782583 0 0 1.01607,2.943494 27.429336,46.222068 59.782583 0 0 1.52812,2.669597 27.429336,46.222068 59.782583 0 0 0.65211,0.863464 27.429336,46.222068 59.782583 0 0 0.712,0.824555 27.429336,46.222068 59.782583 0 0 0.77017,0.783633 27.429336,46.222068 59.782583 0 0 0.82721,0.742475 27.429336,46.222068 59.782583 0 0 0.88298,0.699617 27.429336,46.222068 59.782583 0 0 0.93718,0.656222 27.429336,46.222068 59.782583 0 0 0.99082,0.611041 27.429336,46.222068 59.782583 0 0 1.04187,0.565793 27.429336,46.222068 59.782583 0 0 1.09204,0.519176 27.429336,46.222068 59.782583 0 0 1.14026,0.471678 27.429336,46.222068 59.782583 0 0 1.18655,0.423299 27.429336,46.222068 59.782583 0 0 1.23138,0.375094 27.429336,46.222068 59.782583 0 0 1.27418,0.32528 27.429336,46.222068 59.782583 0 0 1.31481,0.27571 27.429336,46.222068 59.782583 0 0 1.35317,0.22568 27.429336,46.222068 59.782583 0 0 1.39033,0.17468 27.429336,46.222068 59.782583 0 0 1.42458,0.124 27.429336,46.222068 59.782583 0 0 1.45688,0.0725 27.429336,46.222068 59.782583 0 0 1.48709,0.0219 27.429336,46.222068 59.782583 0 0 1.51465,-0.0295 27.429336,46.222068 59.782583 0 0 1.54001,-0.0806 27.429336,46.222068 59.782583 0 0 1.56352,-0.13184 27.429336,46.222068 59.782583 0 0 1.58381,-0.18238 27.429336,46.222068 59.782583 0 0 1.60223,-0.23306 27.429336,46.222068 59.782583 0 0 1.61776,-0.283396 27.429336,46.222068 59.782583 0 0 1.63112,-0.333494 27.429336,46.222068 59.782583 0 0 1.64204,-0.382209 27.429336,46.222068 59.782583 0 0 1.65007,-0.430583 27.429336,46.222068 59.782583 0 0 1.65551,-0.47903 27.429336,46.222068 59.782583 0 0 1.65886,-0.526497 27.429336,46.222068 59.782583 0 0 1.65908,-0.572502 27.429336,46.222068 59.782583 0 0 1.65751,-0.617932 27.429336,46.222068 59.782583 0 0 1.65264,-0.663349 27.429336,46.222068 59.782583 0 0 1.64552,-0.705932 27.429336,46.222068 59.782583 0 0 1.63614,-0.748991 27.429336,46.222068 59.782583 0 0 1.62401,-0.790257 27.429336,46.222068 59.782583 0 0 1.60908,-0.830468 27.429336,46.222068 59.782583 0 0 1.59173,-0.869295 27.429336,46.222068 59.782583 0 0 1.57236,-0.906421 27.429336,46.222068 59.782583 0 0 1.55017,-0.942483 27.429336,46.222068 59.782583 0 0 4.28657,-2.879982 27.429336,46.222068 59.782583 0 0 4.03349,-3.125553 27.429336,46.222068 59.782583 0 0 3.72964,-3.332896 27.429336,46.222068 59.782583 0 0 3.37884,-3.49767 27.429336,46.222068 59.782583 0 0 2.98522,-3.619249 27.429336,46.222068 59.782583 0 0 2.55425,-3.694585 27.429336,46.222068 59.782583 0 0 2.09177,-3.724352 27.429336,46.222068 59.782583 0 0 1.60244,-3.706148 27.429336,46.222068 59.782583 0 0 1.09264,-3.642177 27.429336,46.222068 59.782583 0 0 0.56982,-3.531825 27.429336,46.222068 59.782583 0 0 0.0392,-3.377541 27.429336,46.222068 59.782583 0 0 -0.49127,-3.180236 27.429336,46.222068 59.782583 0 0 -1.01648,-2.943813 27.429336,46.222068 59.782583 0 0 -1.52812,-2.669597 27.429336,46.222068 59.782583 0 0 -2.02082,-2.361887 27.429336,46.222068 59.782583 0 0 -2.48774,-2.025151 27.429336,46.222068 59.782583 0 0 -2.92364,-1.66183 27.429336,46.222068 59.782583 0 0 -0.29715,-0.114317 82.626951,85.022066 38.418186 0 0 -7.14285,-0.646435 82.626951,85.022066 38.418186 0 0 -7.28642,-0.01632 82.626951,85.022066 38.418186 0 0 -7.27768,0.623799 82.626951,85.022066 38.418186 0 0 -7.21357,1.259004 82.626951,85.022066 38.418186 0 0 -7.09481,1.883488 82.626951,85.022066 38.418186 0 0 -6.79245,2.4478 z m 36.67099,0.379223 a 16.740753,24.062261 82.034487 0 1 2.07279,2.053531 16.740753,24.062261 82.034487 0 1 1.55768,2.291367 16.740753,24.062261 82.034487 0 1 1.00327,2.472306 16.740753,24.062261 82.034487 0 1 0.42454,2.592415 16.740753,24.062261 82.034487 0 1 -0.16436,2.649698 16.740753,24.062261 82.034487 0 1 -0.74992,2.640385 16.740753,24.062261 82.034487 0 1 -1.31606,2.566665 16.740753,24.062261 82.034487 0 1 -1.85082,2.430107 16.740753,24.062261 82.034487 0 1 -2.33888,2.232984 16.740753,24.062261 82.034487 0 1 -2.77067,1.98155 16.740753,24.062261 82.034487 0 1 -3.13309,1.680917 16.740753,24.062261 82.034487 0 1 -1.15076,0.502079 16.740753,24.062261 82.034487 0 1 -1.18178,0.459681 16.740753,24.062261 82.034487 0 1 -1.20842,0.416776 16.740753,24.062261 82.034487 0 1 -1.23242,0.37136 16.740753,24.062261 82.034487 0 1 -1.25239,0.325845 16.740753,24.062261 82.034487 0 1 -1.26881,0.279185 16.740753,24.062261 82.034487 0 1 -1.28168,0.23138 16.740753,24.062261 82.034487 0 1 -1.28988,0.182669 16.740753,24.062261 82.034487 0 1 -1.29581,0.134433 16.740753,24.062261 82.034487 0 1 -1.29602,0.0848 16.740753,24.062261 82.034487 0 1 -1.29437,0.03532 16.740753,24.062261 82.034487 0 1 -1.28796,-0.01434 16.740753,24.062261 82.034487 0 1 -1.27784,-0.0637 16.740753,24.062261 82.034487 0 1 -1.26401,-0.112741 16.740753,24.062261 82.034487 0 1 -1.24654,-0.162209 16.740753,24.062261 82.034487 0 1 -1.22495,-0.211043 16.740753,24.062261 82.034487 0 1 -1.20062,-0.258362 16.740753,24.062261 82.034487 0 1 -1.17193,-0.306176 16.740753,24.062261 82.034487 0 1 -1.1404,-0.35175 16.740753,24.062261 82.034487 0 1 -1.10525,-0.397737 16.740753,24.062261 82.034487 0 1 -1.06725,-0.441482 16.740753,24.062261 82.034487 0 1 -1.02548,-0.484187 16.740753,24.062261 82.034487 0 1 -0.98093,-0.525373 16.740753,24.062261 82.034487 0 1 -0.93373,-0.565764 16.740753,24.062261 82.034487 0 1 -0.88369,-0.603906 16.740753,24.062261 82.034487 0 1 -0.83082,-0.63981 16.740753,24.062261 82.034487 0 1 -0.776,-0.674818 16.740753,24.062261 82.034487 0 1 -0.71828,-0.706859 16.740753,24.062261 82.034487 0 1 -0.65892,-0.737615 16.740753,24.062261 82.034487 0 1 -1.55768,-2.291365 16.740753,24.062261 82.034487 0 1 -1.00327,-2.472306 16.740753,24.062261 82.034487 0 1 -0.42496,-2.592738 16.740753,24.062261 82.034487 0 1 0.16477,-2.649377 16.740753,24.062261 82.034487 0 1 0.74951,-2.640705 16.740753,24.062261 82.034487 0 1 1.31647,-2.566343 16.740753,24.062261 82.034487 0 1 1.85082,-2.430109 16.740753,24.062261 82.034487 0 1 2.33921,-2.233387 16.740753,24.062261 82.034487 0 1 2.77034,-1.981146 16.740753,24.062261 82.034487 0 1 3.13309,-1.680918 16.740753,24.062261 82.034487 0 1 3.41934,-1.339123 16.740753,24.062261 82.034487 0 1 3.62043,-0.963963 16.740753,24.062261 82.034487 0 1 3.733,-0.565348 16.740753,24.062261 82.034487 0 1 3.75339,-0.152787 16.740753,24.062261 82.034487 0 1 3.68185,0.263393 16.740753,24.062261 82.034487 0 1 3.51839,0.673258 16.740753,24.062261 82.034487 0 1 3.26985,1.066458 16.740753,24.062261 82.034487 0 1 2.93962,1.433771 16.740753,24.062261 82.034487 0 1 2.53829,1.765144 z" />
        <path
           id="path13469"
           style="mix-blend-mode:normal;fill:#be9e3b;fill-opacity:1;stroke:#be9e3b;stroke-width:0.1;stroke-miterlimit:4;stroke-dasharray:none;stroke-opacity:1"
           d="m -234.00537,62.832789 a 40.884859,60.001258 54.040669 0 0 -1.50525,2.103327 40.884859,60.001258 54.040669 0 0 -2.81608,4.64842 40.884859,60.001258 54.040669 0 0 -2.36068,4.718731 40.884859,60.001258 54.040669 0 0 -1.88182,4.743669 40.884859,60.001258 54.040669 0 0 -1.38582,4.722852 40.884859,60.001258 54.040669 0 0 -0.87595,4.6563 40.884859,60.001258 54.040669 0 0 -0.35725,4.545321 40.884859,60.001258 54.040669 0 0 0.16411,4.390266 40.884859,60.001258 54.040669 0 0 0.68391,4.193085 40.884859,60.001258 54.040669 0 0 1.19757,3.95542 40.884859,60.001258 54.040669 0 0 1.69944,3.6794 40.884859,60.001258 54.040669 0 0 2.18551,3.36839 40.884859,60.001258 54.040669 0 0 2.64982,3.02498 40.884859,60.001258 54.040669 0 0 3.08866,2.65212 40.884859,60.001258 54.040669 0 0 1.17171,0.83036 40.884859,60.001258 54.040669 0 0 1.2201,0.78101 40.884859,60.001258 54.040669 0 0 1.26693,0.7311 40.884859,60.001258 54.040669 0 0 1.31216,0.6799 40.884859,60.001258 54.040669 0 0 1.35625,0.62847 40.884859,60.001258 54.040669 0 0 1.39799,0.57583 40.884859,60.001258 54.040669 0 0 1.43861,0.52296 40.884859,60.001258 54.040669 0 0 1.4776,0.4688 40.884859,60.001258 54.040669 0 0 1.51473,0.41449 40.884859,60.001258 54.040669 0 0 1.55002,0.36003 40.884859,60.001258 54.040669 0 0 1.58336,0.30469 40.884859,60.001258 54.040669 0 0 1.61557,0.2491 40.884859,60.001258 54.040669 0 0 1.64479,0.19313 40.884859,60.001258 54.040669 0 0 1.67329,0.13725 40.884859,60.001258 54.040669 0 0 1.69879,0.081 40.884859,60.001258 54.040669 0 0 1.72317,0.0245 40.884859,60.001258 54.040669 0 0 1.74537,-0.0318 40.884859,60.001258 54.040669 0 0 1.76467,-0.0877 40.884859,60.001258 54.040669 0 0 1.78274,-0.14464 40.884859,60.001258 54.040669 0 0 1.79914,-0.20023 40.884859,60.001258 54.040669 0 0 1.81254,-0.25622 40.884859,60.001258 54.040669 0 0 1.82344,-0.31154 40.884859,60.001258 54.040669 0 0 1.83362,-0.3668 40.884859,60.001258 54.040669 0 0 1.8409,-0.4217 40.884859,60.001258 54.040669 0 0 1.84607,-0.47563 40.884859,60.001258 54.040669 0 0 1.84867,-0.52965 40.884859,60.001258 54.040669 0 0 1.85031,-0.58242 40.884859,60.001258 54.040669 0 0 1.84863,-0.63521 40.884859,60.001258 54.040669 0 0 1.84527,-0.68667 40.884859,60.001258 54.040669 0 0 1.8394,-0.7375 40.884859,60.001258 54.040669 0 0 1.83185,-0.78702 40.884859,60.001258 54.040669 0 0 1.82244,-0.8367 40.884859,60.001258 54.040669 0 0 1.80956,-0.8845 40.884859,60.001258 54.040669 0 0 1.79637,-0.93189 40.884859,60.001258 54.040669 0 0 1.77972,-0.97743 40.884859,60.001258 54.040669 0 0 1.76129,-1.02238 40.884859,60.001258 54.040669 0 0 1.74117,-1.06605 40.884859,60.001258 54.040669 0 0 1.71896,-1.10872 40.884859,60.001258 54.040669 0 0 1.69441,-1.14928 40.884859,60.001258 54.040669 0 0 1.6681,-1.1893 40.884859,60.001258 54.040669 0 0 1.64009,-1.22799 40.884859,60.001258 54.040669 0 0 1.60974,-1.26459 40.884859,60.001258 54.040669 0 0 1.57732,-1.30021 40.884859,60.001258 54.040669 0 0 1.5436,-1.33419 40.884859,60.001258 54.040669 0 0 1.50828,-1.36618 40.884859,60.001258 54.040669 0 0 1.47046,-1.39748 40.884859,60.001258 54.040669 0 0 4.00372,-4.174121 40.884859,60.001258 54.040669 0 0 3.6418,-4.374759 40.884859,60.001258 54.040669 0 0 3.24422,-4.533768 40.884859,60.001258 54.040669 0 0 2.81607,-4.648421 40.884859,60.001258 54.040669 0 0 2.36068,-4.718733 40.884859,60.001258 54.040669 0 0 1.88215,-4.744073 40.884859,60.001258 54.040669 0 0 1.38549,-4.722447 40.884859,60.001258 54.040669 0 0 0.87596,-4.6563 40.884859,60.001258 54.040669 0 0 0.35756,-4.545726 40.884859,60.001258 54.040669 0 0 -0.1641,-4.390265 40.884859,60.001258 54.040669 0 0 -0.68424,-4.192684 40.884859,60.001258 54.040669 0 0 -1.19756,-3.955421 40.884859,60.001258 54.040669 0 0 -1.69944,-3.679392 40.884859,60.001258 54.040669 0 0 -1.68049,-2.59059 82.626951,85.022066 38.418186 0 0 -4.87988,-1.819028 82.626951,85.022066 38.418186 0 0 -6.98161,-1.914193 82.626951,85.022066 38.418186 0 0 -7.13797,-1.289598 82.626951,85.022066 38.418186 0 0 -0.0966,-0.0087 27.429336,46.222068 59.782583 0 1 0.29715,0.114318 27.429336,46.222068 59.782583 0 1 2.92364,1.661829 27.429336,46.222068 59.782583 0 1 2.48774,2.025151 27.429336,46.222068 59.782583 0 1 2.02082,2.361887 27.429336,46.222068 59.782583 0 1 1.52813,2.669598 27.429336,46.222068 59.782583 0 1 1.01647,2.943812 27.429336,46.222068 59.782583 0 1 0.49127,3.180236 27.429336,46.222068 59.782583 0 1 -0.0392,3.377541 27.429336,46.222068 59.782583 0 1 -0.56982,3.531825 27.429336,46.222068 59.782583 0 1 -1.09265,3.642177 27.429336,46.222068 59.782583 0 1 -1.60244,3.706148 27.429336,46.222068 59.782583 0 1 -2.09176,3.724353 27.429336,46.222068 59.782583 0 1 -2.55426,3.694584 27.429336,46.222068 59.782583 0 1 -2.98521,3.61925 27.429336,46.222068 59.782583 0 1 -3.37885,3.49767 27.429336,46.222068 59.782583 0 1 -3.72964,3.332895 27.429336,46.222068 59.782583 0 1 -4.03349,3.125553 27.429336,46.222068 59.782583 0 1 -4.28656,2.879983 27.429336,46.222068 59.782583 0 1 -1.55018,0.942482 27.429336,46.222068 59.782583 0 1 -1.57236,0.906421 27.429336,46.222068 59.782583 0 1 -1.59172,0.869295 27.429336,46.222068 59.782583 0 1 -1.60908,0.830469 27.429336,46.222068 59.782583 0 1 -1.62402,0.790257 27.429336,46.222068 59.782583 0 1 -1.63614,0.748991 27.429336,46.222068 59.782583 0 1 -1.64552,0.705931 27.429336,46.222068 59.782583 0 1 -1.65263,0.66335 27.429336,46.222068 59.782583 0 1 -1.65752,0.617931 27.429336,46.222068 59.782583 0 1 -1.65907,0.572503 27.429336,46.222068 59.782583 0 1 -1.65887,0.526497 27.429336,46.222068 59.782583 0 1 -1.65551,0.47903 27.429336,46.222068 59.782583 0 1 -1.65007,0.430582 27.429336,46.222068 59.782583 0 1 -1.64204,0.382209 27.429336,46.222068 59.782583 0 1 -1.63111,0.333494 27.429336,46.222068 59.782583 0 1 -1.61776,0.283397 27.429336,46.222068 59.782583 0 1 -1.60224,0.23306 27.429336,46.222068 59.782583 0 1 -1.58381,0.18238 27.429336,46.222068 59.782583 0 1 -1.56352,0.13184 27.429336,46.222068 59.782583 0 1 -1.54001,0.0806 27.429336,46.222068 59.782583 0 1 -1.51464,0.0295 27.429336,46.222068 59.782583 0 1 -1.4871,-0.0219 27.429336,46.222068 59.782583 0 1 -1.45688,-0.0725 27.429336,46.222068 59.782583 0 1 -1.42457,-0.124 27.429336,46.222068 59.782583 0 1 -1.39033,-0.17468 27.429336,46.222068 59.782583 0 1 -1.35318,-0.22568 27.429336,46.222068 59.782583 0 1 -1.31481,-0.275711 27.429336,46.222068 59.782583 0 1 -1.27418,-0.32528 27.429336,46.222068 59.782583 0 1 -1.23138,-0.375093 27.429336,46.222068 59.782583 0 1 -1.18654,-0.4233 27.429336,46.222068 59.782583 0 1 -1.14027,-0.471677 27.429336,46.222068 59.782583 0 1 -1.09204,-0.519177 27.429336,46.222068 59.782583 0 1 -1.04187,-0.565793 27.429336,46.222068 59.782583 0 1 -0.99082,-0.611041 27.429336,46.222068 59.782583 0 1 -0.93718,-0.656222 27.429336,46.222068 59.782583 0 1 -0.88297,-0.699617 27.429336,46.222068 59.782583 0 1 -0.82722,-0.742475 27.429336,46.222068 59.782583 0 1 -0.77017,-0.783632 27.429336,46.222068 59.782583 0 1 -0.71199,-0.824556 27.429336,46.222068 59.782583 0 1 -0.65212,-0.863464 27.429336,46.222068 59.782583 0 1 -1.52812,-2.669597 27.429336,46.222068 59.782583 0 1 -1.01607,-2.943494 27.429336,46.222068 59.782583 0 1 -0.49167,-3.180557 27.429336,46.222068 59.782583 0 1 0.0392,-3.377538 27.429336,46.222068 59.782583 0 1 0.56982,-3.531827 27.429336,46.222068 59.782583 0 1 1.09306,-3.641857 27.429336,46.222068 59.782583 0 1 1.60203,-3.706468 27.429336,46.222068 59.782583 0 1 2.09144,-3.723947 27.429336,46.222068 59.782583 0 1 2.55498,-3.69467 27.429336,46.222068 59.782583 0 1 2.98522,-3.619247 27.429336,46.222068 59.782583 0 1 3.37844,-3.497992 27.429336,46.222068 59.782583 0 1 3.72964,-3.332897 27.429336,46.222068 59.782583 0 1 4.03349,-3.125551 27.429336,46.222068 59.782583 0 1 4.28664,-2.879257 27.429336,46.222068 59.782583 0 1 4.48622,-2.596984 82.626951,85.022066 38.418186 0 0 -0.12926,0.04655 82.626951,85.022066 38.418186 0 0 -6.69597,3.08626 82.626951,85.022066 38.418186 0 0 -6.41958,3.655038 82.626951,85.022066 38.418186 0 0 -6.09383,4.195681 82.626951,85.022066 38.418186 0 0 -5.72213,4.704179 82.626951,85.022066 38.418186 0 0 -4.76255,4.646055 z" />
        <path
           id="path13467"
           style="mix-blend-mode:normal;fill:#d2df99;fill-opacity:1;stroke:#d2df99;stroke-width:0.1;stroke-miterlimit:4;stroke-dasharray:none;stroke-opacity:1"
           d="m -141.52628,42.295252 a 74.722297,98.239892 69.606471 0 0 -0.16036,-0.09554 82.626951,85.022066 38.418186 0 0 -0.59153,-0.220497 40.884859,60.001258 54.040669 0 1 1.68049,2.59059 40.884859,60.001258 54.040669 0 1 1.69944,3.679392 40.884859,60.001258 54.040669 0 1 1.19756,3.955421 40.884859,60.001258 54.040669 0 1 0.68423,4.192683 40.884859,60.001258 54.040669 0 1 0.16411,4.390266 40.884859,60.001258 54.040669 0 1 -0.35756,4.545726 40.884859,60.001258 54.040669 0 1 -0.87596,4.656299 40.884859,60.001258 54.040669 0 1 -1.38549,4.722448 40.884859,60.001258 54.040669 0 1 -1.88215,4.744073 40.884859,60.001258 54.040669 0 1 -2.36068,4.718733 40.884859,60.001258 54.040669 0 1 -2.81607,4.648421 40.884859,60.001258 54.040669 0 1 -3.24422,4.533768 40.884859,60.001258 54.040669 0 1 -3.6418,4.374758 40.884859,60.001258 54.040669 0 1 -4.00372,4.174117 40.884859,60.001258 54.040669 0 1 -1.47046,1.39749 40.884859,60.001258 54.040669 0 1 -1.50828,1.36617 40.884859,60.001258 54.040669 0 1 -1.5436,1.3342 40.884859,60.001258 54.040669 0 1 -1.57732,1.3002 40.884859,60.001258 54.040669 0 1 -1.60975,1.26459 40.884859,60.001258 54.040669 0 1 -1.64009,1.22799 40.884859,60.001258 54.040669 0 1 -1.66809,1.1893 40.884859,60.001258 54.040669 0 1 -1.69441,1.14928 40.884859,60.001258 54.040669 0 1 -1.71896,1.10872 40.884859,60.001258 54.040669 0 1 -1.74117,1.06605 40.884859,60.001258 54.040669 0 1 -1.76129,1.02238 40.884859,60.001258 54.040669 0 1 -1.77972,0.97743 40.884859,60.001258 54.040669 0 1 -1.79637,0.93189 40.884859,60.001258 54.040669 0 1 -1.80957,0.8845 40.884859,60.001258 54.040669 0 1 -1.82244,0.8367 40.884859,60.001258 54.040669 0 1 -1.83184,0.78702 40.884859,60.001258 54.040669 0 1 -1.8394,0.7375 40.884859,60.001258 54.040669 0 1 -1.84527,0.68667 40.884859,60.001258 54.040669 0 1 -1.84863,0.63521 40.884859,60.001258 54.040669 0 1 -1.85031,0.58242 40.884859,60.001258 54.040669 0 1 -1.84867,0.52965 40.884859,60.001258 54.040669 0 1 -1.84607,0.47563 40.884859,60.001258 54.040669 0 1 -1.8409,0.4217 40.884859,60.001258 54.040669 0 1 -1.83362,0.3668 40.884859,60.001258 54.040669 0 1 -1.82344,0.31154 40.884859,60.001258 54.040669 0 1 -1.81254,0.25622 40.884859,60.001258 54.040669 0 1 -1.79914,0.20023 40.884859,60.001258 54.040669 0 1 -1.78274,0.14464 40.884859,60.001258 54.040669 0 1 -1.76467,0.0877 40.884859,60.001258 54.040669 0 1 -1.74537,0.0318 40.884859,60.001258 54.040669 0 1 -1.72317,-0.0245 40.884859,60.001258 54.040669 0 1 -1.69879,-0.081 40.884859,60.001258 54.040669 0 1 -1.67329,-0.13725 40.884859,60.001258 54.040669 0 1 -1.64479,-0.19313 40.884859,60.001258 54.040669 0 1 -1.61557,-0.2491 40.884859,60.001258 54.040669 0 1 -1.58336,-0.30469 40.884859,60.001258 54.040669 0 1 -1.55002,-0.36003 40.884859,60.001258 54.040669 0 1 -1.51474,-0.41449 40.884859,60.001258 54.040669 0 1 -1.4776,-0.4688 40.884859,60.001258 54.040669 0 1 -1.4386,-0.52296 40.884859,60.001258 54.040669 0 1 -1.398,-0.57583 40.884859,60.001258 54.040669 0 1 -1.35624,-0.62847 40.884859,60.001258 54.040669 0 1 -1.31216,-0.6799 40.884859,60.001258 54.040669 0 1 -1.26693,-0.7311 40.884859,60.001258 54.040669 0 1 -1.2201,-0.78101 40.884859,60.001258 54.040669 0 1 -1.17172,-0.83036 40.884859,60.001258 54.040669 0 1 -3.08865,-2.65212 40.884859,60.001258 54.040669 0 1 -2.64982,-3.02498 40.884859,60.001258 54.040669 0 1 -2.18551,-3.36839 40.884859,60.001258 54.040669 0 1 -1.69945,-3.67939 40.884859,60.001258 54.040669 0 1 -1.19756,-3.95542 40.884859,60.001258 54.040669 0 1 -0.68391,-4.19309 40.884859,60.001258 54.040669 0 1 -0.16411,-4.390266 40.884859,60.001258 54.040669 0 1 0.35724,-4.545322 40.884859,60.001258 54.040669 0 1 0.87596,-4.656299 40.884859,60.001258 54.040669 0 1 1.38581,-4.722852 40.884859,60.001258 54.040669 0 1 1.88183,-4.743669 40.884859,60.001258 54.040669 0 1 2.36068,-4.718731 40.884859,60.001258 54.040669 0 1 2.81608,-4.648421 40.884859,60.001258 54.040669 0 1 1.50525,-2.103326 82.626951,85.022066 38.418186 0 0 -0.54422,0.530676 82.626951,85.022066 38.418186 0 0 -4.85097,5.610785 82.626951,85.022066 38.418186 0 0 -1.50941,1.958877 82.626951,85.022066 38.418186 0 0 -1.45306,2.000932 82.626951,85.022066 38.418186 0 0 -1.39584,2.041045 82.626951,85.022066 38.418186 0 0 -1.33732,2.079532 82.626951,85.022066 38.418186 0 0 -1.27793,2.116088 82.626951,85.022066 38.418186 0 0 -1.21725,2.15102 82.626951,85.022066 38.418186 0 0 -1.15538,2.183602 82.626951,85.022066 38.418186 0 0 -1.09285,2.215382 82.626951,85.022066 38.418186 0 0 -1.02922,2.244087 82.626951,85.022066 38.418186 0 0 -0.96462,2.271578 82.626951,85.022066 38.418186 0 0 -0.89955,2.296804 82.626951,85.022066 38.418186 0 0 -0.8335,2.32082 82.626951,85.022066 38.418186 0 0 -0.76627,2.342485 82.626951,85.022066 38.418186 0 0 -0.69937,2.361253 82.626951,85.022066 38.418186 0 0 -0.63109,2.37912 82.626951,85.022066 38.418186 0 0 -0.56267,2.39514 82.626951,85.022066 38.418186 0 0 -0.49345,2.40848 82.626951,85.022066 38.418186 0 0 -0.42447,2.41966 82.626951,85.022066 38.418186 0 0 -0.35423,2.4292 82.626951,85.022066 38.418186 0 0 -0.28422,2.43657 82.626951,85.022066 38.418186 0 0 -0.21406,2.44209 82.626951,85.022066 38.418186 0 0 -0.14343,2.44534 82.626951,85.022066 38.418186 0 0 -0.073,2.44642 82.626951,85.022066 38.418186 0 0 -0.002,2.44555 82.626951,85.022066 38.418186 0 0 0.0685,2.4426 82.626951,85.022066 38.418186 0 0 0.13892,2.43777 82.626951,85.022066 38.418186 0 0 0.20943,2.43038 82.626951,85.022066 38.418186 0 0 0.2801,2.42112 82.626951,85.022066 38.418186 0 0 0.35017,2.41009 82.626951,85.022066 38.418186 0 0 0.22932,1.30841 55.138685,75.368306 52.15602 0 0 0.38329,0.69511 55.138685,75.368306 52.15602 0 0 2.99985,4.11714 55.138685,75.368306 52.15602 0 0 3.50134,3.71352 55.138685,75.368306 52.15602 0 0 3.97131,3.27895 55.138685,75.368306 52.15602 0 0 4.40897,2.81612 55.138685,75.368306 52.15602 0 0 4.80851,2.32898 55.138685,75.368306 52.15602 0 0 1.68447,0.66453 55.138685,75.368306 52.15602 0 0 1.72281,0.60788 55.138685,75.368306 52.15602 0 0 1.75952,0.54993 55.138685,75.368306 52.15602 0 0 1.79407,0.49225 55.138685,75.368306 52.15602 0 0 1.82812,0.43352 55.138685,75.368306 52.15602 0 0 1.85886,0.37477 55.138685,75.368306 52.15602 0 0 1.88911,0.31502 55.138685,75.368306 52.15602 0 0 1.91647,0.25559 55.138685,75.368306 52.15602 0 0 1.94301,0.19551 55.138685,75.368306 52.15602 0 0 1.96705,0.13609 55.138685,75.368306 52.15602 0 0 1.98988,0.0757 55.138685,75.368306 52.15602 0 0 2.01012,0.0152 55.138685,75.368306 52.15602 0 0 2.02891,-0.045 55.138685,75.368306 52.15602 0 0 2.04553,-0.10507 55.138685,75.368306 52.15602 0 0 2.06069,-0.16494 55.138685,75.368306 52.15602 0 0 2.07287,-0.22519 55.138685,75.368306 52.15602 0 0 2.08399,-0.28497 55.138685,75.368306 52.15602 0 0 2.09262,-0.34407 55.138685,75.368306 52.15602 0 0 2.10012,-0.40343 55.138685,75.368306 52.15602 0 0 2.10439,-0.46204 55.138685,75.368306 52.15602 0 0 2.10794,-0.52056 55.138685,75.368306 52.15602 0 0 2.10826,-0.57835 55.138685,75.368306 52.15602 0 0 2.10753,-0.63565 55.138685,75.368306 52.15602 0 0 2.10431,-0.69229 55.138685,75.368306 52.15602 0 0 2.09898,-0.74795 55.138685,75.368306 52.15602 0 0 2.09182,-0.80378 55.138685,75.368306 52.15602 0 0 2.08294,-0.85829 55.138685,75.368306 52.15602 0 0 2.07199,-0.91183 55.138685,75.368306 52.15602 0 0 2.05926,-0.96481 55.138685,75.368306 52.15602 0 0 2.0437,-1.01671 55.138685,75.368306 52.15602 0 0 2.02718,-1.06741 55.138685,75.368306 52.15602 0 0 2.00817,-1.11745 55.138685,75.368306 52.15602 0 0 1.98779,-1.16659 55.138685,75.368306 52.15602 0 0 1.96458,-1.21467 55.138685,75.368306 52.15602 0 0 1.9405,-1.26082 55.138685,75.368306 52.15602 0 0 1.91391,-1.30631 55.138685,75.368306 52.15602 0 0 1.88637,-1.35057 55.138685,75.368306 52.15602 0 0 1.85601,-1.39379 55.138685,75.368306 52.15602 0 0 1.82403,-1.43497 55.138685,75.368306 52.15602 0 0 1.79101,-1.47567 55.138685,75.368306 52.15602 0 0 1.75566,-1.51426 55.138685,75.368306 52.15602 0 0 1.71936,-1.55164 55.138685,75.368306 52.15602 0 0 1.68061,-1.58763 55.138685,75.368306 52.15602 0 0 1.64061,-1.622 55.138685,75.368306 52.15602 0 0 1.5989,-1.65508 55.138685,75.368306 52.15602 0 0 1.55592,-1.68653 55.138685,75.368306 52.15602 0 0 1.51132,-1.71596 55.138685,75.368306 52.15602 0 0 1.46577,-1.74418 55.138685,75.368306 52.15602 0 0 1.41788,-1.77029 55.138685,75.368306 52.15602 0 0 1.36934,-1.79559 55.138685,75.368306 52.15602 0 0 1.31962,-1.81854 55.138685,75.368306 52.15602 0 0 3.64513,-5.57648 55.138685,75.368306 52.15602 0 0 3.15326,-5.72056 55.138685,75.368306 52.15602 0 0 2.63424,-5.81628 55.138685,75.368306 52.15602 0 0 2.09227,-5.862247 55.138685,75.368306 52.15602 0 0 1.53292,-5.858035 55.138685,75.368306 52.15602 0 0 0.96021,-5.803725 55.138685,75.368306 52.15602 0 0 0.37949,-5.701041 55.138685,75.368306 52.15602 0 0 -0.20426,-5.547981 55.138685,75.368306 52.15602 0 0 -0.78708,-5.348682 55.138685,75.368306 52.15602 0 0 -1.36204,-5.103577 55.138685,75.368306 52.15602 0 0 -1.9261,-4.814852 55.138685,75.368306 52.15602 0 0 -2.47398,-4.484958 55.138685,75.368306 52.15602 0 0 -3.00016,-4.116739 55.138685,75.368306 52.15602 0 0 -3.50102,-3.713921 55.138685,75.368306 52.15602 0 0 -1.86815,-1.542317 z" />
        <path
           id="path13465"
           style="mix-blend-mode:normal;fill:#9ae2d6;fill-opacity:1;stroke:#9ae2d6;stroke-width:0.1;stroke-miterlimit:4;stroke-dasharray:none;stroke-opacity:1"
           d="m -141.52628,42.295252 a 55.138685,75.368306 52.15602 0 1 1.86814,1.542317 55.138685,75.368306 52.15602 0 1 3.50102,3.713921 55.138685,75.368306 52.15602 0 1 3.00017,4.116739 55.138685,75.368306 52.15602 0 1 2.47398,4.484958 55.138685,75.368306 52.15602 0 1 1.92609,4.814852 55.138685,75.368306 52.15602 0 1 1.36204,5.103577 55.138685,75.368306 52.15602 0 1 0.78709,5.348682 55.138685,75.368306 52.15602 0 1 0.20425,5.547981 55.138685,75.368306 52.15602 0 1 -0.37948,5.701041 55.138685,75.368306 52.15602 0 1 -0.96022,5.803725 55.138685,75.368306 52.15602 0 1 -1.53292,5.858035 55.138685,75.368306 52.15602 0 1 -2.09227,5.86225 55.138685,75.368306 52.15602 0 1 -2.63424,5.81627 55.138685,75.368306 52.15602 0 1 -3.15326,5.72057 55.138685,75.368306 52.15602 0 1 -3.64512,5.57648 55.138685,75.368306 52.15602 0 1 -1.31962,1.81854 55.138685,75.368306 52.15602 0 1 -1.36935,1.79558 55.138685,75.368306 52.15602 0 1 -1.41788,1.77029 55.138685,75.368306 52.15602 0 1 -1.46576,1.74418 55.138685,75.368306 52.15602 0 1 -1.51133,1.71596 55.138685,75.368306 52.15602 0 1 -1.55591,1.68654 55.138685,75.368306 52.15602 0 1 -1.59891,1.65507 55.138685,75.368306 52.15602 0 1 -1.6406,1.622 55.138685,75.368306 52.15602 0 1 -1.68062,1.58763 55.138685,75.368306 52.15602 0 1 -1.71935,1.55164 55.138685,75.368306 52.15602 0 1 -1.75566,1.51426 55.138685,75.368306 52.15602 0 1 -1.79102,1.47567 55.138685,75.368306 52.15602 0 1 -1.82403,1.43497 55.138685,75.368306 52.15602 0 1 -1.856,1.39379 55.138685,75.368306 52.15602 0 1 -1.88637,1.35058 55.138685,75.368306 52.15602 0 1 -1.91392,1.3063 55.138685,75.368306 52.15602 0 1 -1.9405,1.26082 55.138685,75.368306 52.15602 0 1 -1.96458,1.21467 55.138685,75.368306 52.15602 0 1 -1.98778,1.16659 55.138685,75.368306 52.15602 0 1 -2.00818,1.11745 55.138685,75.368306 52.15602 0 1 -2.02718,1.06741 55.138685,75.368306 52.15602 0 1 -2.0437,1.01671 55.138685,75.368306 52.15602 0 1 -2.05925,0.96481 55.138685,75.368306 52.15602 0 1 -2.07199,0.91183 55.138685,75.368306 52.15602 0 1 -2.08295,0.85829 55.138685,75.368306 52.15602 0 1 -2.09181,0.80378 55.138685,75.368306 52.15602 0 1 -2.09899,0.74795 55.138685,75.368306 52.15602 0 1 -2.10431,0.69229 55.138685,75.368306 52.15602 0 1 -2.10753,0.63565 55.138685,75.368306 52.15602 0 1 -2.10826,0.57835 55.138685,75.368306 52.15602 0 1 -2.10794,0.52056 55.138685,75.368306 52.15602 0 1 -2.10439,0.46204 55.138685,75.368306 52.15602 0 1 -2.10011,0.40343 55.138685,75.368306 52.15602 0 1 -2.09263,0.34407 55.138685,75.368306 52.15602 0 1 -2.08399,0.28497 55.138685,75.368306 52.15602 0 1 -2.07286,0.22519 55.138685,75.368306 52.15602 0 1 -2.0607,0.16494 55.138685,75.368306 52.15602 0 1 -2.04552,0.10507 55.138685,75.368306 52.15602 0 1 -2.02892,0.045 55.138685,75.368306 52.15602 0 1 -2.01012,-0.0153 55.138685,75.368306 52.15602 0 1 -1.98988,-0.0757 55.138685,75.368306 52.15602 0 1 -1.96705,-0.13608 55.138685,75.368306 52.15602 0 1 -1.943,-0.19551 55.138685,75.368306 52.15602 0 1 -1.91647,-0.25559 55.138685,75.368306 52.15602 0 1 -1.88912,-0.31501 55.138685,75.368306 52.15602 0 1 -1.85886,-0.37479 55.138685,75.368306 52.15602 0 1 -1.82812,-0.43351 55.138685,75.368306 52.15602 0 1 -1.79406,-0.49225 55.138685,75.368306 52.15602 0 1 -1.75953,-0.54993 55.138685,75.368306 52.15602 0 1 -1.72281,-0.60787 55.138685,75.368306 52.15602 0 1 -1.68447,-0.66453 55.138685,75.368306 52.15602 0 1 -4.8085,-2.32899 55.138685,75.368306 52.15602 0 1 -4.40897,-2.81612 55.138685,75.368306 52.15602 0 1 -3.97132,-3.27895 55.138685,75.368306 52.15602 0 1 -3.50134,-3.71352 55.138685,75.368306 52.15602 0 1 -2.99984,-4.11714 55.138685,75.368306 52.15602 0 1 -0.3833,-0.69511 82.626951,85.022066 38.418186 0 0 0.1907,1.08848 82.626951,85.022066 38.418186 0 0 0.48928,2.3819 82.626951,85.022066 38.418186 0 0 0.5586,2.36434 82.626951,85.022066 38.418186 0 0 0.62705,2.34541 82.626951,85.022066 38.418186 0 0 0.69483,2.32398 82.626951,85.022066 38.418186 0 0 0.76277,2.30069 82.626951,85.022066 38.418186 0 0 0.829,2.27539 82.626951,85.022066 38.418186 0 0 0.89539,2.24824 82.626951,85.022066 38.418186 0 0 0.96088,2.21971 82.626951,85.022066 38.418186 0 0 1.02499,2.18877 82.626951,85.022066 38.418186 0 0 1.08885,2.15567 82.626951,85.022066 38.418186 0 0 1.15182,2.12117 82.626951,85.022066 38.418186 0 0 1.21349,2.085 82.626951,85.022066 38.418186 0 0 1.27386,2.04714 82.626951,85.022066 38.418186 0 0 1.33397,2.00709 82.626951,85.022066 38.418186 0 0 1.3924,1.96504 82.626951,85.022066 38.418186 0 0 1.44967,1.92276 82.626951,85.022066 38.418186 0 0 1.50549,1.87732 82.626951,85.022066 38.418186 0 0 1.56123,1.83117 82.626951,85.022066 38.418186 0 0 1.61413,1.78276 82.626951,85.022066 38.418186 0 0 1.66622,1.73372 82.626951,85.022066 38.418186 0 0 1.71701,1.68297 82.626951,85.022066 38.418186 0 0 1.76682,1.63015 82.626951,85.022066 38.418186 0 0 1.34959,1.17326 74.722297,98.239892 69.606471 0 0 1.60842,0.066 74.722297,98.239892 69.606471 0 0 2.53895,0.0462 74.722297,98.239892 69.606471 0 0 2.55301,-0.0106 74.722297,98.239892 69.606471 0 0 2.56333,-0.0677 74.722297,98.239892 69.606471 0 0 2.57294,-0.12472 74.722297,98.239892 69.606471 0 0 2.58028,-0.18222 74.722297,98.239892 69.606471 0 0 2.58626,-0.23882 74.722297,98.239892 69.606471 0 0 2.58924,-0.29581 74.722297,98.239892 69.606471 0 0 2.59159,-0.35199 74.722297,98.239892 69.606471 0 0 2.59136,-0.40825 74.722297,98.239892 69.606471 0 0 2.58894,-0.46424 74.722297,98.239892 69.606471 0 0 2.58547,-0.51975 74.722297,98.239892 69.606471 0 0 2.57943,-0.57533 74.722297,98.239892 69.606471 0 0 2.5717,-0.62962 74.722297,98.239892 69.606471 0 0 2.5617,-0.68437 74.722297,98.239892 69.606471 0 0 2.55074,-0.73792 74.722297,98.239892 69.606471 0 0 2.5372,-0.79153 74.722297,98.239892 69.606471 0 0 2.52197,-0.84384 74.722297,98.239892 69.606471 0 0 2.50487,-0.89631 74.722297,98.239892 69.606471 0 0 2.4861,-0.94748 74.722297,98.239892 69.606471 0 0 2.46515,-0.99839 74.722297,98.239892 69.606471 0 0 2.44282,-1.04842 74.722297,98.239892 69.606471 0 0 2.4184,-1.09747 74.722297,98.239892 69.606471 0 0 2.3922,-1.14594 74.722297,98.239892 69.606471 0 0 2.36425,-1.19384 74.722297,98.239892 69.606471 0 0 2.335,-1.24013 74.722297,98.239892 69.606471 0 0 2.30356,-1.28615 74.722297,98.239892 69.606471 0 0 2.27045,-1.33089 74.722297,98.239892 69.606471 0 0 2.23556,-1.37505 74.722297,98.239892 69.606471 0 0 2.19939,-1.41759 74.722297,98.239892 69.606471 0 0 2.16176,-1.45996 74.722297,98.239892 69.606471 0 0 2.12181,-1.50023 74.722297,98.239892 69.606471 0 0 2.08152,-1.54009 74.722297,98.239892 69.606471 0 0 2.0381,-1.57849 74.722297,98.239892 69.606471 0 0 1.99445,-1.61574 74.722297,98.239892 69.606471 0 0 5.52081,-4.88693 74.722297,98.239892 69.606471 0 0 5.1041,-5.16071 74.722297,98.239892 69.606471 0 0 4.65605,-5.40327 74.722297,98.239892 69.606471 0 0 4.17876,-5.61231 74.722297,98.239892 69.606471 0 0 3.67531,-5.78669 74.722297,98.239892 69.606471 0 0 3.15062,-5.92514 74.722297,98.239892 69.606471 0 0 2.60543,-6.02776 74.722297,98.239892 69.606471 0 0 2.04433,-6.09286 74.722297,98.239892 69.606471 0 0 1.47104,-6.12015 74.722297,98.239892 69.606471 0 0 0.88774,-6.109861 74.722297,98.239892 69.606471 0 0 0.30032,-6.061946 74.722297,98.239892 69.606471 0 0 -0.29016,-5.976892 74.722297,98.239892 69.606471 0 0 -0.87783,-5.854648 74.722297,98.239892 69.606471 0 0 -1.46099,-5.696507 74.722297,98.239892 69.606471 0 0 -2.03455,-5.503058 74.722297,98.239892 69.606471 0 0 -2.59612,-5.275681 74.722297,98.239892 69.606471 0 0 -3.14108,-5.016014 74.722297,98.239892 69.606471 0 0 -3.66702,-4.725433 74.722297,98.239892 69.606471 0 0 -4.17008,-4.405492 74.722297,98.239892 69.606471 0 0 -4.64793,-4.058299 74.722297,98.239892 69.606471 0 0 -5.09645,-3.686533 74.722297,98.239892 69.606471 0 0 -1.40637,-0.839704 z" />
        <path
           id="path13443"
           style="mix-blend-mode:normal;fill:#46adcc;fill-opacity:1;stroke:#46adcc;stroke-width:0.1;stroke-miterlimit:4;stroke-dasharray:none;stroke-opacity:1"
           d="m -105.25035,71.707046 a 82.626951,85.022066 38.418186 0 0 -1.62467,-2.444747 82.626951,85.022066 38.418186 0 0 -4.51631,-5.630517 82.626951,85.022066 38.418186 0 0 -4.99776,-5.199779 82.626951,85.022066 38.418186 0 0 -5.44102,-4.728202 82.626951,85.022066 38.418186 0 0 -5.84347,-4.22161 82.626951,85.022066 38.418186 0 0 -6.2009,-3.681955 82.626951,85.022066 38.418186 0 0 -6.51148,-3.115707 82.626951,85.022066 38.418186 0 0 -1.21961,-0.454799 55.138685,75.368306 52.15602 0 1 0.0793,0.06556 74.722297,98.239892 69.606471 0 1 1.40637,0.839703 74.722297,98.239892 69.606471 0 1 5.09645,3.686533 74.722297,98.239892 69.606471 0 1 4.64793,4.058299 74.722297,98.239892 69.606471 0 1 4.17009,4.405492 74.722297,98.239892 69.606471 0 1 3.66702,4.725433 74.722297,98.239892 69.606471 0 1 3.14107,5.016014 74.722297,98.239892 69.606471 0 1 2.59612,5.275681 74.722297,98.239892 69.606471 0 1 2.03455,5.503058 74.722297,98.239892 69.606471 0 1 1.46099,5.696507 74.722297,98.239892 69.606471 0 1 0.87783,5.854648 74.722297,98.239892 69.606471 0 1 0.29016,5.976893 74.722297,98.239892 69.606471 0 1 -0.30032,6.061945 74.722297,98.239892 69.606471 0 1 -0.88774,6.109864 74.722297,98.239892 69.606471 0 1 -1.47104,6.12014 74.722297,98.239892 69.606471 0 1 -2.04433,6.09287 74.722297,98.239892 69.606471 0 1 -2.60543,6.02776 74.722297,98.239892 69.606471 0 1 -3.15062,5.92514 74.722297,98.239892 69.606471 0 1 -3.67531,5.78669 74.722297,98.239892 69.606471 0 1 -4.17876,5.6123 74.722297,98.239892 69.606471 0 1 -4.65605,5.40328 74.722297,98.239892 69.606471 0 1 -5.1041,5.1607 74.722297,98.239892 69.606471 0 1 -5.52081,4.88693 74.722297,98.239892 69.606471 0 1 -1.99445,1.61575 74.722297,98.239892 69.606471 0 1 -2.0381,1.57849 74.722297,98.239892 69.606471 0 1 -2.08152,1.54009 74.722297,98.239892 69.606471 0 1 -2.12181,1.50022 74.722297,98.239892 69.606471 0 1 -2.16176,1.45997 74.722297,98.239892 69.606471 0 1 -2.19939,1.41759 74.722297,98.239892 69.606471 0 1 -2.23556,1.37505 74.722297,98.239892 69.606471 0 1 -2.27045,1.33088 74.722297,98.239892 69.606471 0 1 -2.30356,1.28616 74.722297,98.239892 69.606471 0 1 -2.335,1.24013 74.722297,98.239892 69.606471 0 1 -2.36425,1.19384 74.722297,98.239892 69.606471 0 1 -2.3922,1.14594 74.722297,98.239892 69.606471 0 1 -2.4184,1.09747 74.722297,98.239892 69.606471 0 1 -2.44282,1.04842 74.722297,98.239892 69.606471 0 1 -2.46515,0.99839 74.722297,98.239892 69.606471 0 1 -2.4861,0.94748 74.722297,98.239892 69.606471 0 1 -2.50487,0.89631 74.722297,98.239892 69.606471 0 1 -2.52197,0.84384 74.722297,98.239892 69.606471 0 1 -2.5372,0.79153 74.722297,98.239892 69.606471 0 1 -2.55074,0.73791 74.722297,98.239892 69.606471 0 1 -2.5617,0.68438 74.722297,98.239892 69.606471 0 1 -2.5717,0.62961 74.722297,98.239892 69.606471 0 1 -2.57943,0.57534 74.722297,98.239892 69.606471 0 1 -2.58547,0.51975 74.722297,98.239892 69.606471 0 1 -2.58894,0.46424 74.722297,98.239892 69.606471 0 1 -2.59136,0.40825 74.722297,98.239892 69.606471 0 1 -2.59159,0.35198 74.722297,98.239892 69.606471 0 1 -2.58924,0.29582 74.722297,98.239892 69.606471 0 1 -2.58626,0.23881 74.722297,98.239892 69.606471 0 1 -2.58028,0.18222 74.722297,98.239892 69.606471 0 1 -2.57294,0.12473 74.722297,98.239892 69.606471 0 1 -2.56333,0.0677 74.722297,98.239892 69.606471 0 1 -2.553,0.0106 74.722297,98.239892 69.606471 0 1 -2.53896,-0.0462 74.722297,98.239892 69.606471 0 1 -1.60842,-0.066 82.626951,85.022066 38.418186 0 0 0.46439,0.40327 82.626951,85.022066 38.418186 0 0 1.86063,1.52185 82.626951,85.022066 38.418186 0 0 1.90518,1.46484 82.626951,85.022066 38.418186 0 0 1.94861,1.4076 82.626951,85.022066 38.418186 0 0 1.98927,1.34884 82.626951,85.022066 38.418186 0 0 2.02978,1.28863 82.626951,85.022066 38.418186 0 0 2.06761,1.22761 82.626951,85.022066 38.418186 0 0 2.10391,1.16604 82.626951,85.022066 38.418186 0 0 2.13819,1.10287 82.626951,85.022066 38.418186 0 0 2.17084,1.0384 82.626951,85.022066 38.418186 0 0 2.20237,0.97371 82.626951,85.022066 38.418186 0 0 2.2305,0.9083 82.626951,85.022066 38.418186 0 0 2.25815,0.84184 82.626951,85.022066 38.418186 0 0 2.28345,0.77419 82.626951,85.022066 38.418186 0 0 2.30656,0.70678 82.626951,85.022066 38.418186 0 0 2.32774,0.63849 82.626951,85.022066 38.418186 0 0 2.34699,0.56933 82.626951,85.022066 38.418186 0 0 2.36468,0.4996 82.626951,85.022066 38.418186 0 0 2.38022,0.43013 82.626951,85.022066 38.418186 0 0 2.39307,0.35986 82.626951,85.022066 38.418186 0 0 2.39882,0.28858 78.325832,103.31362 9.7902659 0 0 1.31878,-0.10435 78.325832,103.31362 9.7902659 0 0 2.07218,-0.2343 78.325832,103.31362 9.7902659 0 0 2.07221,-0.30421 78.325832,103.31362 9.7902659 0 0 2.07038,-0.37425 78.325832,103.31362 9.7902659 0 0 2.06678,-0.44371 78.325832,103.31362 9.7902659 0 0 2.06212,-0.51271 78.325832,103.31362 9.7902659 0 0 2.05635,-0.58192 78.325832,103.31362 9.7902659 0 0 2.0488,-0.65058 78.325832,103.31362 9.7902659 0 0 2.03988,-0.71832 78.325832,103.31362 9.7902659 0 0 2.0299,-0.7856 78.325832,103.31362 9.7902659 0 0 6.01403,-2.75782 78.325832,103.31362 9.7902659 0 0 5.87217,-3.34322 78.325832,103.31362 9.7902659 0 0 5.69434,-3.90903 78.325832,103.31362 9.7902659 0 0 5.48149,-4.44982 78.325832,103.31362 9.7902659 0 0 5.23462,-4.96353 78.325832,103.31362 9.7902659 0 0 4.95488,-5.44658 78.325832,103.31362 9.7902659 0 0 4.64591,-5.89609 78.325832,103.31362 9.7902659 0 0 4.30721,-6.30983 78.325832,103.31362 9.7902659 0 0 3.94294,-6.68381 78.325832,103.31362 9.7902659 0 0 3.55318,-7.01733 78.325832,103.31362 9.7902659 0 0 3.14205,-7.30647 78.325832,103.31362 9.7902659 0 0 2.71207,-7.55186 78.325832,103.31362 9.7902659 0 0 2.26479,-7.74968 78.325832,103.31362 9.7902659 0 0 1.80379,-7.90022 78.325832,103.31362 9.7902659 0 0 1.33115,-8.00202 78.325832,103.31362 9.7902659 0 0 0.85097,-8.05439 78.325832,103.31362 9.7902659 0 0 0.36511,-8.05718 78.325832,103.31362 9.7902659 0 0 -0.12239,-8.010499 78.325832,103.31362 9.7902659 0 0 -0.61002,-7.913773 78.325832,103.31362 9.7902659 0 0 -0.87682,-6.228482 z" />
        <path
           id="path13427"
           style="mix-blend-mode:normal;fill:#2472b4;fill-opacity:1;stroke:#2472b4;stroke-width:0.1;stroke-miterlimit:4;stroke-dasharray:none;stroke-opacity:1"
           d="m -93.99154,96.307021 a 82.626951,85.022066 38.418186 0 0 -0.26155,-1.106421 82.626951,85.022066 38.418186 0 0 -2.28661,-6.900062 82.626951,85.022066 38.418186 0 0 -2.88126,-6.656725 82.626951,85.022066 38.418186 0 0 -3.45383,-6.362239 82.626951,85.022066 38.418186 0 0 -2.37556,-3.574528 78.325832,103.31362 9.7902659 0 1 0.87682,6.228482 78.325832,103.31362 9.7902659 0 1 0.61002,7.913773 78.325832,103.31362 9.7902659 0 1 0.12239,8.010499 78.325832,103.31362 9.7902659 0 1 -0.36511,8.05718 78.325832,103.31362 9.7902659 0 1 -0.85097,8.05439 78.325832,103.31362 9.7902659 0 1 -1.33115,8.00202 78.325832,103.31362 9.7902659 0 1 -1.80379,7.90022 78.325832,103.31362 9.7902659 0 1 -2.26477,7.74964 78.325832,103.31362 9.7902659 0 1 -2.71207,7.55185 78.325832,103.31362 9.7902659 0 1 -3.14205,7.30647 78.325832,103.31362 9.7902659 0 1 -3.55318,7.01734 78.325832,103.31362 9.7902659 0 1 -3.94294,6.68381 78.325832,103.31362 9.7902659 0 1 -4.30721,6.30982 78.325832,103.31362 9.7902659 0 1 -4.6459,5.89609 78.325832,103.31362 9.7902659 0 1 -4.95489,5.44659 78.325832,103.31362 9.7902659 0 1 -5.23462,4.96352 78.325832,103.31362 9.7902659 0 1 -5.48149,4.44983 78.325832,103.31362 9.7902659 0 1 -5.69434,3.90902 78.325832,103.31362 9.7902659 0 1 -5.87217,3.34323 78.325832,103.31362 9.7902659 0 1 -6.01403,2.75782 78.325832,103.31362 9.7902659 0 1 -2.0299,0.78559 78.325832,103.31362 9.7902659 0 1 -2.03988,0.71833 78.325832,103.31362 9.7902659 0 1 -2.04879,0.65057 78.325832,103.31362 9.7902659 0 1 -2.05635,0.58193 78.325832,103.31362 9.7902659 0 1 -2.06213,0.5127 78.325832,103.31362 9.7902659 0 1 -2.06678,0.44372 78.325832,103.31362 9.7902659 0 1 -2.07038,0.37425 78.325832,103.31362 9.7902659 0 1 -2.07221,0.3042 78.325832,103.31362 9.7902659 0 1 -2.07218,0.23431 78.325832,103.31362 9.7902659 0 1 -1.31878,0.10435 82.626951,85.022066 38.418186 0 0 0.006,7.8e-4 82.626951,85.022066 38.418186 0 0 2.41354,0.21846 82.626951,85.022066 38.418186 0 0 2.42115,0.14733 82.626951,85.022066 38.418186 0 0 2.42657,0.0764 82.626951,85.022066 38.418186 0 0 2.42943,0.005 82.626951,85.022066 38.418186 0 0 2.43074,-0.066 82.626951,85.022066 38.418186 0 0 2.42956,-0.13688 82.626951,85.022066 38.418186 0 0 2.42651,-0.20788 82.626951,85.022066 38.418186 0 0 2.42128,-0.27864 82.626951,85.022066 38.418186 0 0 2.41462,-0.34922 82.626951,85.022066 38.418186 0 0 2.40536,-0.41989 82.626951,85.022066 38.418186 0 0 2.39401,-0.48957 82.626951,85.022066 38.418186 0 0 2.38048,-0.559 82.626951,85.022066 38.418186 0 0 2.3655,-0.62826 82.626951,85.022066 38.418186 0 0 2.34842,-0.69655 82.626951,85.022066 38.418186 0 0 2.32917,-0.76458 82.626951,85.022066 38.418186 0 0 2.30783,-0.83164 82.626951,85.022066 38.418186 0 0 2.2847,-0.89813 82.626951,85.022066 38.418186 0 0 2.25981,-0.96403 82.626951,85.022066 38.418186 0 0 2.23242,-1.02929 82.626951,85.022066 38.418186 0 0 1.4686,-0.72819 83.218922,112.53857 13.25113 0 0 0.15411,-0.12446 83.218922,112.53857 13.25113 0 0 5.49751,-5.11119 83.218922,112.53857 13.25113 0 0 5.24353,-5.58766 83.218922,112.53857 13.25113 0 0 4.96016,-6.03205 83.218922,112.53857 13.25113 0 0 4.64941,-6.44273 83.218922,112.53857 13.25113 0 0 4.31225,-6.81765 83.218922,112.53857 13.25113 0 0 3.9508,-7.15443 83.218922,112.53857 13.25113 0 0 3.56789,-7.45087 83.218922,112.53857 13.25113 0 0 3.16474,-7.70598 83.218922,112.53857 13.25113 0 0 2.74337,-7.91815 83.218922,112.53857 13.25113 0 0 2.30734,-8.08523 83.218922,112.53857 13.25113 0 0 1.85842,-8.20778 83.218922,112.53857 13.25113 0 0 1.39897,-8.28461 83.218922,112.53857 13.25113 0 0 0.9313,-8.31452 83.218922,112.53857 13.25113 0 0 0.32215,-5.825007 z" />
        <path
           id="path13425"
           style="mix-blend-mode:normal;fill:#023296;fill-opacity:1;stroke:#023296;stroke-width:0.1;stroke-miterlimit:4;stroke-dasharray:none;stroke-opacity:1"
           d="m -93.99154,96.307021 a 83.218922,112.53857 13.25113 0 1 -0.32215,5.825009 83.218922,112.53857 13.25113 0 1 -0.93131,8.31452 83.218922,112.53857 13.25113 0 1 -1.39896,8.28461 83.218922,112.53857 13.25113 0 1 -1.85842,8.20778 83.218922,112.53857 13.25113 0 1 -2.30734,8.08523 83.218922,112.53857 13.25113 0 1 -2.74337,7.91815 83.218922,112.53857 13.25113 0 1 -3.16474,7.70597 83.218922,112.53857 13.25113 0 1 -3.5679,7.45087 83.218922,112.53857 13.25113 0 1 -3.9508,7.15444 83.218922,112.53857 13.25113 0 1 -4.31225,6.81765 83.218922,112.53857 13.25113 0 1 -4.6494,6.44273 83.218922,112.53857 13.25113 0 1 -4.96016,6.03205 83.218922,112.53857 13.25113 0 1 -5.24354,5.58765 83.218922,112.53857 13.25113 0 1 -5.49751,5.1112 83.218922,112.53857 13.25113 0 1 -0.1541,0.12446 82.626951,85.022066 38.418186 0 0 0.73546,-0.36515 82.626951,85.022066 38.418186 0 0 2.17289,-1.15632 82.626951,85.022066 38.418186 0 0 2.14034,-1.2184 82.626951,85.022066 38.418186 0 0 2.10603,-1.27992 82.626951,85.022066 38.418186 0 0 2.07002,-1.34013 82.626951,85.022066 38.418186 0 0 2.0316,-1.39896 82.626951,85.022066 38.418186 0 0 1.99221,-1.45659 82.626951,85.022066 38.418186 0 0 1.95114,-1.5129 82.626951,85.022066 38.418186 0 0 1.90788,-1.56898 82.626951,85.022066 38.418186 0 0 1.86311,-1.6223 82.626951,85.022066 38.418186 0 0 1.81729,-1.67512 82.626951,85.022066 38.418186 0 0 1.76946,-1.72625 82.626951,85.022066 38.418186 0 0 1.72034,-1.77576 82.626951,85.022066 38.418186 0 0 1.66954,-1.82397 82.626951,85.022066 38.418186 0 0 1.61744,-1.87056 82.626951,85.022066 38.418186 0 0 1.56407,-1.91553 82.626951,85.022066 38.418186 0 0 4.35822,-6.00158 82.626951,85.022066 38.418186 0 0 3.83218,-6.34623 82.626951,85.022066 38.418186 0 0 3.27746,-6.64308 82.626951,85.022066 38.418186 0 0 2.69767,-6.8892 82.626951,85.022066 38.418186 0 0 2.09705,-7.08326 82.626951,85.022066 38.418186 0 0 1.48027,-7.22288 82.626951,85.022066 38.418186 0 0 0.8525,-7.30786 82.626951,85.022066 38.418186 0 0 0.21869,-7.337 82.626951,85.022066 38.418186 0 0 -0.41725,-7.31106 82.626951,85.022066 38.418186 0 0 -1.04996,-7.2285 82.626951,85.022066 38.418186 0 0 -1.4137,-5.984829 z" />
      </g>
      <text
         xml:space="preserve"
         transform="matrix(0.21725576,0,0,0.21725576,13.75565,-27.998525)"
         id="text39206"
         style="font-style:normal;font-weight:normal;font-size:266.667px;line-height:1.25;font-family:sans-serif;white-space:pre;shape-inside:url(#rect39208);fill:#000000;fill-opacity:1;stroke:#000000;stroke-opacity:1"><tspan
           x="297.71289"
           y="502.49833"
           id="tspan158128"><tspan
             style="font-style:italic;-inkscape-font-specification:'sans-serif Italic'"
             id="tspan158126">fcm</tspan></tspan></text>
    </g>
  </g>
</svg>
