<?xml version="1.0" encoding="UTF-8" standalone="no"?>
<!-- Created with Inkscape (http://www.inkscape.org/) -->

<svg
   width="297mm"
   height="100mm"
   viewBox="0 0 297 100"
   version="1.1"
   id="svg157809"
   inkscape:version="1.1.2 (0a00cf5339, 2022-02-04)"
   sodipodi:docname="logo_fcm_roma_12.svg"
   xmlns:inkscape="http://www.inkscape.org/namespaces/inkscape"
   xmlns:sodipodi="http://sodipodi.sourceforge.net/DTD/sodipodi-0.dtd"
   xmlns="http://www.w3.org/2000/svg"
   xmlns:svg="http://www.w3.org/2000/svg">
  <sodipodi:namedview
     id="namedview157811"
     pagecolor="#ffffff"
     bordercolor="#666666"
     borderopacity="1.0"
     inkscape:pageshadow="2"
     inkscape:pageopacity="0.0"
     inkscape:pagecheckerboard="true"
     inkscape:document-units="mm"
     showgrid="false"
     inkscape:zoom="0.47215208"
     inkscape:cx="950.96479"
     inkscape:cy="324.04814"
     inkscape:window-width="1366"
     inkscape:window-height="704"
     inkscape:window-x="0"
     inkscape:window-y="0"
     inkscape:window-maximized="1"
     inkscape:current-layer="layer1" />
  <defs
     id="defs157806">
    <rect
       x="297.71375"
       y="266.56018"
       width="733.28381"
       height="323.7547"
       id="rect39208-8" />
  </defs>
  <g
     inkscape:label="Layer 1"
     inkscape:groupmode="layer"
     id="layer1">
    <g
       id="g160854"
       transform="matrix(1.6948161,0,0,1.6948161,-110.57386,-84.737916)">
      <g
         id="g33178"
         transform="matrix(0.22857297,0,0,0.22857297,58.296284,74.488593)">
        <path
           id="path25483"
           style="opacity:1;fill:#ffd5d5;fill-opacity:1;stroke:#ff0000;stroke-width:7.55906;stroke-miterlimit:4;stroke-dasharray:none;stroke-opacity:1"
           d="m 591.07227,-364.64062 a 158.48615,323.79105 68.222423 0 0 -0.082,0 158.48615,323.79105 68.222423 0 0 -0.0508,0.004 131.47494,304.4953 71.408876 0 1 0.13282,-0.004 z"
           transform="scale(0.26458333)" />
        <path
           id="path25421"
           style="opacity:1;fill:#7d1700;fill-opacity:1;stroke:#7d1700;stroke-width:7.55906;stroke-miterlimit:4;stroke-dasharray:none;stroke-opacity:1"
           d="m 318.87109,-266.94336 a 38.410028,160.25108 77.877399 0 0 0.14844,0.27148 38.410028,160.25108 77.877399 0 0 5.875,4.21485 38.410028,160.25108 77.877399 0 0 8.89063,3.3418 38.410028,160.25108 77.877399 0 0 11.72461,2.40234 38.410028,160.25108 77.877399 0 0 14.31835,1.41211 38.410028,160.25108 77.877399 0 0 16.61915,0.39258 38.410028,160.25108 77.877399 0 0 18.58593,-0.63282 38.410028,160.25108 77.877399 0 0 20.17188,-1.64648 38.410028,160.25108 77.877399 0 0 21.34765,-2.62695 38.410028,160.25108 77.877399 0 0 22.08789,-3.55274 38.410028,160.25108 77.877399 0 0 22.37891,-4.40625 38.410028,160.25108 77.877399 0 0 7.92578,-1.7539 38.410028,160.25108 77.877399 0 0 7.88477,-1.84375 38.410028,160.25108 77.877399 0 0 7.82226,-1.93164 38.410028,160.25108 77.877399 0 0 7.74219,-2.01368 38.410028,160.25108 77.877399 0 0 7.64063,-2.09179 38.410028,160.25108 77.877399 0 0 7.51757,-2.16211 38.410028,160.25108 77.877399 0 0 7.38086,-2.22852 38.410028,160.25108 77.877399 0 0 7.21875,-2.28906 38.410028,160.25108 77.877399 0 0 7.04297,-2.34375 38.410028,160.25108 77.877399 0 0 6.84766,-2.39258 38.410028,160.25108 77.877399 0 0 6.63281,-2.43555 38.410028,160.25108 77.877399 0 0 6.4043,-2.4707 38.410028,160.25108 77.877399 0 0 6.15625,-2.5 38.410028,160.25108 77.877399 0 0 5.89258,-2.52344 38.410028,160.25108 77.877399 0 0 5.61718,-2.54101 38.410028,160.25108 77.877399 0 0 5.32422,-2.55078 38.410028,160.25108 77.877399 0 0 5.01758,-2.55469 38.410028,160.25108 77.877399 0 0 4.70117,-2.55273 38.410028,160.25108 77.877399 0 0 4.36719,-2.54297 38.410028,160.25108 77.877399 0 0 4.02734,-2.52735 38.410028,160.25108 77.877399 0 0 3.67579,-2.5039 38.410028,160.25108 77.877399 0 0 3.3125,-2.47657 38.410028,160.25108 77.877399 0 0 2.94335,-2.43945 38.410028,160.25108 77.877399 0 0 2.56446,-2.40039 38.410028,160.25108 77.877399 0 0 2.18164,-2.35156 38.410028,160.25108 77.877399 0 0 1.79101,-2.29883 38.410028,160.25108 77.877399 0 0 1.39649,-2.23828 38.410028,160.25108 77.877399 0 0 0.99805,-2.17383 38.410028,160.25108 77.877399 0 0 0.59765,-2.10156 38.410028,160.25108 77.877399 0 0 0.19531,-2.02735 38.410028,160.25108 77.877399 0 0 -0.0234,-0.2207 409.60335,412.36592 7.8407079e-5 0 0 -35.375,-4.9668 409.60335,412.36592 7.8407079e-5 0 0 -37.79297,-1.75976 409.60335,412.36592 7.8407079e-5 0 0 -37.79297,1.75976 409.60335,412.36592 7.8407079e-5 0 0 -37.4707,5.26172 409.60335,412.36592 7.8407079e-5 0 0 -36.83008,8.72071 409.60335,412.36592 7.8407079e-5 0 0 -35.8711,12.10546 409.60335,412.36592 7.8407079e-5 0 0 -34.61132,15.38477 409.60335,412.36592 7.8407079e-5 0 0 -33.05274,18.5332 409.60335,412.36592 7.8407079e-5 0 0 -22.14844,15.27344 z"
           transform="scale(0.26458333)" />
        <path
           id="path25417"
           style="opacity:1;fill:#952b0f;fill-opacity:1;stroke:#952b0f;stroke-width:7.55906;stroke-miterlimit:4;stroke-dasharray:none;stroke-opacity:1"
           d="m 271.51562,-227.10938 a 63.618476,201.81474 72.791584 0 0 0.75782,2 63.618476,201.81474 72.791584 0 0 6.21289,6.6875 63.618476,201.81474 72.791584 0 0 9.36719,5.46876 63.618476,201.81474 72.791584 0 0 12.35937,4.15429 63.618476,201.81474 72.791584 0 0 15.14063,2.76758 63.618476,201.81474 72.791584 0 0 17.66406,1.33594 63.618476,201.81474 72.791584 0 0 19.88281,-0.11914 63.618476,201.81474 72.791584 0 0 21.76172,-1.57227 63.618476,201.81474 72.791584 0 0 23.27148,-3 63.618476,201.81474 72.791584 0 0 24.37891,-4.375 63.618476,201.81474 72.791584 0 0 25.07031,-5.67578 63.618476,201.81474 72.791584 0 0 25.33399,-6.87891 63.618476,201.81474 72.791584 0 0 8.66992,-2.61328 63.618476,201.81474 72.791584 0 0 8.63086,-2.73828 63.618476,201.81474 72.791584 0 0 8.57617,-2.85351 63.618476,201.81474 72.791584 0 0 8.50391,-2.96485 63.618476,201.81474 72.791584 0 0 8.41601,-3.07226 63.618476,201.81474 72.791584 0 0 8.30664,-3.16993 63.618476,201.81474 72.791584 0 0 8.1875,-3.26171 63.618476,201.81474 72.791584 0 0 8.04492,-3.34961 63.618476,201.81474 72.791584 0 0 7.89063,-3.42774 63.618476,201.81474 72.791584 0 0 7.71875,-3.5 63.618476,201.81474 72.791584 0 0 7.53125,-3.5664 63.618476,201.81474 72.791584 0 0 7.33008,-3.62305 63.618476,201.81474 72.791584 0 0 7.11328,-3.67578 63.618476,201.81474 72.791584 0 0 6.88086,-3.71875 63.618476,201.81474 72.791584 0 0 6.63672,-3.75586 63.618476,201.81474 72.791584 0 0 6.37695,-3.7832 63.618476,201.81474 72.791584 0 0 6.10547,-3.80274 63.618476,201.81474 72.791584 0 0 5.82226,-3.81836 63.618476,201.81474 72.791584 0 0 5.52735,-3.82226 63.618476,201.81474 72.791584 0 0 5.2207,-3.82227 63.618476,201.81474 72.791584 0 0 4.90235,-3.81055 63.618476,201.81474 72.791584 0 0 4.57617,-3.79297 63.618476,201.81474 72.791584 0 0 4.24023,-3.76757 63.618476,201.81474 72.791584 0 0 3.89453,-3.73633 63.618476,201.81474 72.791584 0 0 3.54297,-3.69531 63.618476,201.81474 72.791584 0 0 3.1836,-3.64649 63.618476,201.81474 72.791584 0 0 2.8164,-3.59375 63.618476,201.81474 72.791584 0 0 2.44531,-3.5293 63.618476,201.81474 72.791584 0 0 2.07032,-3.46093 63.618476,201.81474 72.791584 0 0 1.6875,-3.38477 63.618476,201.81474 72.791584 0 0 0.27343,-0.69531 409.60335,412.36592 7.8407079e-5 0 0 -21.92773,-5.19141 409.60335,412.36592 7.8407079e-5 0 0 -2.0957,-0.29492 38.410028,160.25108 77.877399 0 1 0.0234,0.2207 38.410028,160.25108 77.877399 0 1 -0.19531,2.02735 38.410028,160.25108 77.877399 0 1 -0.59765,2.10156 38.410028,160.25108 77.877399 0 1 -0.99805,2.17383 38.410028,160.25108 77.877399 0 1 -1.39649,2.23828 38.410028,160.25108 77.877399 0 1 -1.79101,2.29883 38.410028,160.25108 77.877399 0 1 -2.18164,2.35156 38.410028,160.25108 77.877399 0 1 -2.56446,2.40039 38.410028,160.25108 77.877399 0 1 -2.94335,2.43945 38.410028,160.25108 77.877399 0 1 -3.3125,2.47657 38.410028,160.25108 77.877399 0 1 -3.67579,2.5039 38.410028,160.25108 77.877399 0 1 -4.02734,2.52735 38.410028,160.25108 77.877399 0 1 -4.36719,2.54297 38.410028,160.25108 77.877399 0 1 -4.70117,2.55273 38.410028,160.25108 77.877399 0 1 -5.01758,2.55469 38.410028,160.25108 77.877399 0 1 -5.32422,2.55078 38.410028,160.25108 77.877399 0 1 -5.61718,2.54101 38.410028,160.25108 77.877399 0 1 -5.89258,2.52344 38.410028,160.25108 77.877399 0 1 -6.15625,2.5 38.410028,160.25108 77.877399 0 1 -6.4043,2.4707 38.410028,160.25108 77.877399 0 1 -6.63281,2.43555 38.410028,160.25108 77.877399 0 1 -6.84766,2.39258 38.410028,160.25108 77.877399 0 1 -7.04297,2.34375 38.410028,160.25108 77.877399 0 1 -7.21875,2.28906 38.410028,160.25108 77.877399 0 1 -7.38086,2.22852 38.410028,160.25108 77.877399 0 1 -7.51757,2.16211 38.410028,160.25108 77.877399 0 1 -7.64063,2.09179 38.410028,160.25108 77.877399 0 1 -7.74219,2.01368 38.410028,160.25108 77.877399 0 1 -7.82226,1.93164 38.410028,160.25108 77.877399 0 1 -7.88477,1.84375 38.410028,160.25108 77.877399 0 1 -7.92578,1.7539 38.410028,160.25108 77.877399 0 1 -22.37891,4.40625 38.410028,160.25108 77.877399 0 1 -22.08789,3.55274 38.410028,160.25108 77.877399 0 1 -21.34765,2.62695 38.410028,160.25108 77.877399 0 1 -20.17188,1.64648 38.410028,160.25108 77.877399 0 1 -18.58593,0.63282 38.410028,160.25108 77.877399 0 1 -16.61915,-0.39258 38.410028,160.25108 77.877399 0 1 -14.31835,-1.41211 38.410028,160.25108 77.877399 0 1 -11.72461,-2.40234 38.410028,160.25108 77.877399 0 1 -8.89063,-3.3418 38.410028,160.25108 77.877399 0 1 -5.875,-4.21485 38.410028,160.25108 77.877399 0 1 -0.14844,-0.27148 409.60335,412.36592 7.8407079e-5 0 0 -9.06445,6.25195 409.60335,412.36592 7.8407079e-5 0 0 -29.10547,24.33399 409.60335,412.36592 7.8407079e-5 0 0 -9.18555,9.24804 z"
           transform="scale(0.26458333)" />
        <path
           id="path25413"
           style="opacity:1;fill:#a86f22;fill-opacity:1;stroke:#a86f22;stroke-width:7.55906;stroke-miterlimit:4;stroke-dasharray:none;stroke-opacity:1"
           d="m 210.60156,-151.93945 a 101.1504,265.6593 74.764979 0 0 8.03711,4.10937 101.1504,265.6593 74.764979 0 0 16.59375,5.75 101.1504,265.6593 74.764979 0 0 19.14063,4.35156 101.1504,265.6593 74.764979 0 0 21.44336,2.89844 101.1504,265.6593 74.764979 0 0 23.47851,1.4082 101.1504,265.6593 74.764979 0 0 25.2168,-0.0977 101.1504,265.6593 74.764979 0 0 26.63867,-1.60352 101.1504,265.6593 74.764979 0 0 27.72461,-3.08984 101.1504,265.6593 74.764979 0 0 28.46484,-4.53711 101.1504,265.6593 74.764979 0 0 28.84375,-5.92773 101.1504,265.6593 74.764979 0 0 10.11719,-2.38868 101.1504,265.6593 74.764979 0 0 10.10547,-2.54687 101.1504,265.6593 74.764979 0 0 10.07617,-2.70117 101.1504,265.6593 74.764979 0 0 10.0293,-2.84961 101.1504,265.6593 74.764979 0 0 9.97266,-2.9961 101.1504,265.6593 74.764979 0 0 9.89453,-3.13476 101.1504,265.6593 74.764979 0 0 9.80468,-3.27149 101.1504,265.6593 74.764979 0 0 9.69922,-3.40234 101.1504,265.6593 74.764979 0 0 9.57813,-3.52734 101.1504,265.6593 74.764979 0 0 9.44336,-3.64844 101.1504,265.6593 74.764979 0 0 9.29297,-3.76172 101.1504,265.6593 74.764979 0 0 9.12695,-3.86914 101.1504,265.6593 74.764979 0 0 8.95117,-3.97266 101.1504,265.6593 74.764979 0 0 8.75781,-4.06836 101.1504,265.6593 74.764979 0 0 8.55078,-4.16015 101.1504,265.6593 74.764979 0 0 8.33399,-4.24219 101.1504,265.6593 74.764979 0 0 8.09961,-4.32031 101.1504,265.6593 74.764979 0 0 7.85742,-4.39063 101.1504,265.6593 74.764979 0 0 7.59961,-4.45508 101.1504,265.6593 74.764979 0 0 7.33203,-4.51171 101.1504,265.6593 74.764979 0 0 7.05274,-4.56055 101.1504,265.6593 74.764979 0 0 6.76171,-4.60352 101.1504,265.6593 74.764979 0 0 6.46289,-4.64062 101.1504,265.6593 74.764979 0 0 6.1504,-4.66797 101.1504,265.6593 74.764979 0 0 5.83007,-4.68945 101.1504,265.6593 74.764979 0 0 5.50196,-4.70508 101.1504,265.6593 74.764979 0 0 5.16406,-4.71094 101.1504,265.6593 74.764979 0 0 4.81836,-4.71094 101.1504,265.6593 74.764979 0 0 4.46484,-4.70312 101.1504,265.6593 74.764979 0 0 4.10547,-4.6875 101.1504,265.6593 74.764979 0 0 3.73828,-4.66602 101.1504,265.6593 74.764979 0 0 3.36719,-4.63672 101.1504,265.6593 74.764979 0 0 2.99023,-4.60156 101.1504,265.6593 74.764979 0 0 2.60743,-4.55664 101.1504,265.6593 74.764979 0 0 2.2207,-4.50586 101.1504,265.6593 74.764979 0 0 1.83398,-4.44922 101.1504,265.6593 74.764979 0 0 1.43946,-4.38476 101.1504,265.6593 74.764979 0 0 1.04687,-4.31446 101.1504,265.6593 74.764979 0 0 0.65039,-4.23632 101.1504,265.6593 74.764979 0 0 0.25195,-4.15235 101.1504,265.6593 74.764979 0 0 -0.9746,-7.53906 409.60335,412.36592 7.8407079e-5 0 0 -25.54883,-8.62109 409.60335,412.36592 7.8407079e-5 0 0 -14.90235,-3.5293 63.618476,201.81474 72.791584 0 1 -0.27343,0.69531 63.618476,201.81474 72.791584 0 1 -1.6875,3.38477 63.618476,201.81474 72.791584 0 1 -2.07032,3.46093 63.618476,201.81474 72.791584 0 1 -2.44531,3.5293 63.618476,201.81474 72.791584 0 1 -2.8164,3.59375 63.618476,201.81474 72.791584 0 1 -3.1836,3.64649 63.618476,201.81474 72.791584 0 1 -3.54297,3.69531 63.618476,201.81474 72.791584 0 1 -3.89453,3.73633 63.618476,201.81474 72.791584 0 1 -4.24023,3.76757 63.618476,201.81474 72.791584 0 1 -4.57617,3.79297 63.618476,201.81474 72.791584 0 1 -4.90235,3.81055 63.618476,201.81474 72.791584 0 1 -5.2207,3.82227 63.618476,201.81474 72.791584 0 1 -5.52735,3.82226 63.618476,201.81474 72.791584 0 1 -5.82226,3.81836 63.618476,201.81474 72.791584 0 1 -6.10547,3.80274 63.618476,201.81474 72.791584 0 1 -6.37695,3.7832 63.618476,201.81474 72.791584 0 1 -6.63672,3.75586 63.618476,201.81474 72.791584 0 1 -6.88086,3.71875 63.618476,201.81474 72.791584 0 1 -7.11328,3.67578 63.618476,201.81474 72.791584 0 1 -7.33008,3.62305 63.618476,201.81474 72.791584 0 1 -7.53125,3.5664 63.618476,201.81474 72.791584 0 1 -7.71875,3.5 63.618476,201.81474 72.791584 0 1 -7.89063,3.42774 63.618476,201.81474 72.791584 0 1 -8.04492,3.34961 63.618476,201.81474 72.791584 0 1 -8.1875,3.26171 63.618476,201.81474 72.791584 0 1 -8.30664,3.16993 63.618476,201.81474 72.791584 0 1 -8.41601,3.07226 63.618476,201.81474 72.791584 0 1 -8.50391,2.96485 63.618476,201.81474 72.791584 0 1 -8.57617,2.85351 63.618476,201.81474 72.791584 0 1 -8.63086,2.73828 63.618476,201.81474 72.791584 0 1 -8.66992,2.61328 63.618476,201.81474 72.791584 0 1 -25.33399,6.87891 63.618476,201.81474 72.791584 0 1 -25.07031,5.67578 63.618476,201.81474 72.791584 0 1 -24.37891,4.375 63.618476,201.81474 72.791584 0 1 -23.27148,3 63.618476,201.81474 72.791584 0 1 -21.76172,1.57227 63.618476,201.81474 72.791584 0 1 -19.88281,0.11914 63.618476,201.81474 72.791584 0 1 -17.66406,-1.33594 63.618476,201.81474 72.791584 0 1 -15.14063,-2.76758 63.618476,201.81474 72.791584 0 1 -12.35937,-4.15429 63.618476,201.81474 72.791584 0 1 -9.36719,-5.46876 63.618476,201.81474 72.791584 0 1 -6.21289,-6.6875 63.618476,201.81474 72.791584 0 1 -0.75782,-2 409.60335,412.36592 7.8407079e-5 0 0 -17.56835,17.68555 409.60335,412.36592 7.8407079e-5 0 0 -24.16993,29.30274 409.60335,412.36592 7.8407079e-5 0 0 -19.17578,28.18164 z"
           transform="scale(0.26458333)" />
        <path
           id="path25409"
           style="opacity:1;fill:#bc9538;fill-opacity:1;stroke:#bc9538;stroke-width:7.55906;stroke-miterlimit:4;stroke-dasharray:none;stroke-opacity:1"
           d="M 175.68555,-82.814453 A 131.47494,304.4953 71.408876 0 0 178.5625,-80 a 131.47494,304.4953 71.408876 0 0 13.71289,9.162109 131.47494,304.4953 71.408876 0 0 16.48633,7.673829 131.47494,304.4953 71.408876 0 0 19.08203,6.101562 131.47494,304.4953 71.408876 0 0 21.46875,4.460938 131.47494,304.4953 71.408876 0 0 23.61914,2.773437 131.47494,304.4953 71.408876 0 0 25.51172,1.052734 131.47494,304.4953 71.408876 0 0 27.12305,-0.677734 131.47494,304.4953 71.408876 0 0 28.43945,-2.400391 131.47494,304.4953 71.408876 0 0 29.44336,-4.095703 131.47494,304.4953 71.408876 0 0 30.12305,-5.75 131.47494,304.4953 71.408876 0 0 30.47461,-7.33789 131.47494,304.4953 71.408876 0 0 10.65234,-2.917969 131.47494,304.4953 71.408876 0 0 10.64062,-3.09961 131.47494,304.4953 71.408876 0 0 10.61328,-3.27539 131.47494,304.4953 71.408876 0 0 10.57227,-3.445313 131.47494,304.4953 71.408876 0 0 10.51953,-3.613281 131.47494,304.4953 71.408876 0 0 10.44922,-3.77539 131.47494,304.4953 71.408876 0 0 10.36719,-3.931641 131.47494,304.4953 71.408876 0 0 10.27148,-4.082031 131.47494,304.4953 71.408876 0 0 10.16016,-4.230466 131.47494,304.4953 71.408876 0 0 10.03711,-4.36914 131.47494,304.4953 71.408876 0 0 9.90039,-4.50586 131.47494,304.4953 71.408876 0 0 9.75,-4.63282 131.47494,304.4953 71.408876 0 0 9.58594,-4.75586 131.47494,304.4953 71.408876 0 0 9.41015,-4.87304 131.47494,304.4953 71.408876 0 0 9.22266,-4.98047 131.47494,304.4953 71.408876 0 0 9.02148,-5.08594 131.47494,304.4953 71.408876 0 0 8.80664,-5.17969 131.47494,304.4953 71.408876 0 0 8.58399,-5.26953 131.47494,304.4953 71.408876 0 0 8.34765,-5.35351 131.47494,304.4953 71.408876 0 0 8.09961,-5.42774 131.47494,304.4953 71.408876 0 0 7.8418,-5.49609 131.47494,304.4953 71.408876 0 0 7.57227,-5.55469 131.47494,304.4953 71.408876 0 0 7.29492,-5.60937 131.47494,304.4953 71.408876 0 0 7.00586,-5.65625 131.47494,304.4953 71.408876 0 0 6.70898,-5.69336 131.47494,304.4953 71.408876 0 0 6.40235,-5.72266 131.47494,304.4953 71.408876 0 0 6.08593,-5.74609 131.47494,304.4953 71.408876 0 0 5.76368,-5.76172 131.47494,304.4953 71.408876 0 0 5.43164,-5.76953 131.47494,304.4953 71.408876 0 0 5.09375,-5.76953 131.47494,304.4953 71.408876 0 0 4.74804,-5.76172 131.47494,304.4953 71.408876 0 0 4.39649,-5.74414 131.47494,304.4953 71.408876 0 0 4.04101,-5.72266 131.47494,304.4953 71.408876 0 0 3.67578,-5.69141 131.47494,304.4953 71.408876 0 0 3.31055,-5.65429 131.47494,304.4953 71.408876 0 0 2.9375,-5.60742 131.47494,304.4953 71.408876 0 0 2.56055,-5.55274 131.47494,304.4953 71.408876 0 0 2.18359,-5.49414 131.47494,304.4953 71.408876 0 0 1.79883,-5.42383 131.47494,304.4953 71.408876 0 0 1.41601,-5.34961 131.47494,304.4953 71.408876 0 0 1.0293,-5.26562 131.47494,304.4953 71.408876 0 0 0.64063,-5.17774 131.47494,304.4953 71.408876 0 0 0.25195,-5.08007 131.47494,304.4953 71.408876 0 0 -1.43359,-13.96875 131.47494,304.4953 71.408876 0 0 -1.75391,-4.92969 409.60335,412.36592 7.8407079e-5 0 0 -29.44727,-13.08985 409.60335,412.36592 7.8407079e-5 0 0 -10.32421,-3.48437 101.1504,265.6593 74.764979 0 1 0.9746,7.53906 101.1504,265.6593 74.764979 0 1 -0.25195,4.15235 101.1504,265.6593 74.764979 0 1 -0.65039,4.23632 101.1504,265.6593 74.764979 0 1 -1.04687,4.31446 101.1504,265.6593 74.764979 0 1 -1.43946,4.38476 101.1504,265.6593 74.764979 0 1 -1.83398,4.44922 101.1504,265.6593 74.764979 0 1 -2.2207,4.50586 101.1504,265.6593 74.764979 0 1 -2.60743,4.55664 101.1504,265.6593 74.764979 0 1 -2.99023,4.60156 101.1504,265.6593 74.764979 0 1 -3.36719,4.63672 101.1504,265.6593 74.764979 0 1 -3.73828,4.66602 101.1504,265.6593 74.764979 0 1 -4.10547,4.6875 101.1504,265.6593 74.764979 0 1 -4.46484,4.70312 101.1504,265.6593 74.764979 0 1 -4.81836,4.71094 101.1504,265.6593 74.764979 0 1 -5.16406,4.71094 101.1504,265.6593 74.764979 0 1 -5.50196,4.70508 101.1504,265.6593 74.764979 0 1 -5.83007,4.68945 101.1504,265.6593 74.764979 0 1 -6.1504,4.66797 101.1504,265.6593 74.764979 0 1 -6.46289,4.64062 101.1504,265.6593 74.764979 0 1 -6.76171,4.60352 101.1504,265.6593 74.764979 0 1 -7.05274,4.56055 101.1504,265.6593 74.764979 0 1 -7.33203,4.51171 101.1504,265.6593 74.764979 0 1 -7.59961,4.45508 101.1504,265.6593 74.764979 0 1 -7.85742,4.39063 101.1504,265.6593 74.764979 0 1 -8.09961,4.32031 101.1504,265.6593 74.764979 0 1 -8.33399,4.24219 101.1504,265.6593 74.764979 0 1 -8.55078,4.16015 101.1504,265.6593 74.764979 0 1 -8.75781,4.06836 101.1504,265.6593 74.764979 0 1 -8.95117,3.97266 101.1504,265.6593 74.764979 0 1 -9.12695,3.86914 101.1504,265.6593 74.764979 0 1 -9.29297,3.76172 101.1504,265.6593 74.764979 0 1 -9.44336,3.64844 101.1504,265.6593 74.764979 0 1 -9.57813,3.52734 101.1504,265.6593 74.764979 0 1 -9.69922,3.40234 101.1504,265.6593 74.764979 0 1 -9.80468,3.27149 101.1504,265.6593 74.764979 0 1 -9.89453,3.13476 101.1504,265.6593 74.764979 0 1 -9.97266,2.9961 101.1504,265.6593 74.764979 0 1 -10.0293,2.84961 101.1504,265.6593 74.764979 0 1 -10.07617,2.70117 101.1504,265.6593 74.764979 0 1 -10.10547,2.54687 101.1504,265.6593 74.764979 0 1 -10.11719,2.38868 101.1504,265.6593 74.764979 0 1 -28.84375,5.92773 101.1504,265.6593 74.764979 0 1 -28.46484,4.53711 101.1504,265.6593 74.764979 0 1 -27.72461,3.08984 101.1504,265.6593 74.764979 0 1 -26.63867,1.60352 101.1504,265.6593 74.764979 0 1 -25.2168,0.0977 101.1504,265.6593 74.764979 0 1 -23.47851,-1.4082 101.1504,265.6593 74.764979 0 1 -21.44336,-2.89844 101.1504,265.6593 74.764979 0 1 -19.14063,-4.35156 101.1504,265.6593 74.764979 0 1 -16.59375,-5.75 101.1504,265.6593 74.764979 0 1 -8.03711,-4.10937 409.60335,412.36592 7.8407079e-5 0 0 -2.20508,3.24023 409.60335,412.36592 7.8407079e-5 0 0 -18.41015,33.27539 409.60335,412.36592 7.8407079e-5 0 0 -14.30078,32.609377 z"
           transform="scale(0.26458333)" />
        <path
           id="path25405"
           style="opacity:1;fill:#d1c36a;fill-opacity:1;stroke:#d1c36a;stroke-width:7.55906;stroke-miterlimit:4;stroke-dasharray:none;stroke-opacity:1"
           d="m 163.50977,-46.955078 a 158.48615,323.79105 68.222423 0 0 3.10937,6.060547 158.48615,323.79105 68.222423 0 0 10.8125,13.341797 158.48615,323.79105 68.222423 0 0 13.9082,11.728515 158.48615,323.79105 68.222423 0 0 16.85157,9.9843752 158.48615,323.79105 68.222423 0 0 19.61328,8.1328126 158.48615,323.79105 68.222423 0 0 22.15625,6.1914062 158.48615,323.79105 68.222423 0 0 24.45898,4.181641 158.48615,323.79105 68.222423 0 0 26.49414,2.126953 158.48615,323.79105 68.222423 0 0 28.23633,0.04687 158.48615,323.79105 68.222423 0 0 29.67188,-2.029297 A 158.48615,323.79105 68.222423 0 0 389.60352,8.7226562 158.48615,323.79105 68.222423 0 0 421.1543,2.625 a 158.48615,323.79105 68.222423 0 0 31.98047,-8.0449219 158.48615,323.79105 68.222423 0 0 10.93554,-3.1699219 158.48615,323.79105 68.222423 0 0 10.9336,-3.3847652 158.48615,323.79105 68.222423 0 0 10.91211,-3.591797 158.48615,323.79105 68.222423 0 0 10.8789,-3.792969 158.48615,323.79105 68.222423 0 0 10.83399,-3.992187 158.48615,323.79105 68.222423 0 0 10.77148,-4.185547 158.48615,323.79105 68.222423 0 0 10.69922,-4.373047 158.48615,323.79105 68.222423 0 0 10.60937,-4.556641 158.48615,323.79105 68.222423 0 0 10.50977,-4.732422 158.48615,323.79105 68.222423 0 0 10.39258,-4.902343 158.48615,323.79105 68.222423 0 0 10.26562,-5.066407 158.48615,323.79105 68.222423 0 0 10.125,-5.224609 158.48615,323.79105 68.222423 0 0 9.97071,-5.375 158.48615,323.79105 68.222423 0 0 9.80273,-5.519531 158.48615,323.79105 68.222423 0 0 9.625,-5.65625 158.48615,323.79105 68.222423 0 0 9.43359,-5.785157 158.48615,323.79105 68.222423 0 0 9.22852,-5.910156 158.48615,323.79105 68.222423 0 0 9.01367,-6.023437 158.48615,323.79105 68.222423 0 0 8.78711,-6.13086 158.48615,323.79105 68.222423 0 0 8.54883,-6.232421 158.48615,323.79105 68.222423 0 0 8.29883,-6.32227 158.48615,323.79105 68.222423 0 0 8.04101,-6.40625 158.48615,323.79105 68.222423 0 0 7.77149,-6.48047 158.48615,323.79105 68.222423 0 0 7.49023,-6.54882 158.48615,323.79105 68.222423 0 0 7.20117,-6.60742 158.48615,323.79105 68.222423 0 0 6.9043,-6.65626 158.48615,323.79105 68.222423 0 0 6.5957,-6.70117 158.48615,323.79105 68.222423 0 0 6.28125,-6.73242 158.48615,323.79105 68.222423 0 0 5.95703,-6.75781 158.48615,323.79105 68.222423 0 0 5.625,-6.77344 158.48615,323.79105 68.222423 0 0 5.28711,-6.78125 158.48615,323.79105 68.222423 0 0 4.94336,-6.7793 158.48615,323.79105 68.222423 0 0 4.5918,-6.77148 158.48615,323.79105 68.222423 0 0 4.23242,-6.75195 158.48615,323.79105 68.222423 0 0 3.8711,-6.72461 158.48615,323.79105 68.222423 0 0 3.5039,-6.68946 158.48615,323.79105 68.222423 0 0 3.13281,-6.64453 158.48615,323.79105 68.222423 0 0 2.75391,-6.59179 158.48615,323.79105 68.222423 0 0 2.37695,-6.53321 158.48615,323.79105 68.222423 0 0 1.99414,-6.46093 158.48615,323.79105 68.222423 0 0 1.60743,-6.38477 158.48615,323.79105 68.222423 0 0 1.2207,-6.30078 158.48615,323.79105 68.222423 0 0 0.83398,-6.20508 158.48615,323.79105 68.222423 0 0 0.44141,-6.10352 158.48615,323.79105 68.222423 0 0 -0.95312,-17.24609 158.48615,323.79105 68.222423 0 0 -2.53516,-9.50391 409.60335,412.36592 7.8407079e-5 0 0 -23.65625,-13.26562 409.60335,412.36592 7.8407079e-5 0 0 -5.16211,-2.29492 131.47494,304.4953 71.408876 0 1 1.75391,4.92969 131.47494,304.4953 71.408876 0 1 1.43359,13.96875 131.47494,304.4953 71.408876 0 1 -0.25195,5.08007 131.47494,304.4953 71.408876 0 1 -0.64063,5.17774 131.47494,304.4953 71.408876 0 1 -1.0293,5.26562 131.47494,304.4953 71.408876 0 1 -1.41601,5.34961 131.47494,304.4953 71.408876 0 1 -1.79883,5.42383 131.47494,304.4953 71.408876 0 1 -2.18359,5.49414 131.47494,304.4953 71.408876 0 1 -2.56055,5.55274 131.47494,304.4953 71.408876 0 1 -2.9375,5.60742 131.47494,304.4953 71.408876 0 1 -3.31055,5.65429 131.47494,304.4953 71.408876 0 1 -3.67578,5.69141 131.47494,304.4953 71.408876 0 1 -4.04101,5.72266 131.47494,304.4953 71.408876 0 1 -4.39649,5.74414 131.47494,304.4953 71.408876 0 1 -4.74804,5.76172 131.47494,304.4953 71.408876 0 1 -5.09375,5.76953 131.47494,304.4953 71.408876 0 1 -5.43164,5.76953 131.47494,304.4953 71.408876 0 1 -5.76368,5.76172 131.47494,304.4953 71.408876 0 1 -6.08593,5.74609 131.47494,304.4953 71.408876 0 1 -6.40235,5.72266 131.47494,304.4953 71.408876 0 1 -6.70898,5.69336 131.47494,304.4953 71.408876 0 1 -7.00586,5.65625 131.47494,304.4953 71.408876 0 1 -7.29492,5.60937 131.47494,304.4953 71.408876 0 1 -7.57227,5.55469 131.47494,304.4953 71.408876 0 1 -7.8418,5.49609 131.47494,304.4953 71.408876 0 1 -8.09961,5.42774 131.47494,304.4953 71.408876 0 1 -8.34765,5.35351 131.47494,304.4953 71.408876 0 1 -8.58399,5.26953 131.47494,304.4953 71.408876 0 1 -8.80664,5.17969 131.47494,304.4953 71.408876 0 1 -9.02148,5.08594 131.47494,304.4953 71.408876 0 1 -9.22266,4.98047 131.47494,304.4953 71.408876 0 1 -9.41015,4.87304 131.47494,304.4953 71.408876 0 1 -9.58594,4.75586 131.47494,304.4953 71.408876 0 1 -9.75,4.63282 131.47494,304.4953 71.408876 0 1 -9.90039,4.50586 131.47494,304.4953 71.408876 0 1 -10.03711,4.36914 131.47494,304.4953 71.408876 0 1 -10.16016,4.230466 131.47494,304.4953 71.408876 0 1 -10.27148,4.082031 131.47494,304.4953 71.408876 0 1 -10.36719,3.931641 131.47494,304.4953 71.408876 0 1 -10.44922,3.77539 131.47494,304.4953 71.408876 0 1 -10.51953,3.613281 131.47494,304.4953 71.408876 0 1 -10.57227,3.445313 131.47494,304.4953 71.408876 0 1 -10.61328,3.27539 131.47494,304.4953 71.408876 0 1 -10.64062,3.09961 131.47494,304.4953 71.408876 0 1 -10.65234,2.917969 131.47494,304.4953 71.408876 0 1 -30.47461,7.33789 131.47494,304.4953 71.408876 0 1 -30.12305,5.75 131.47494,304.4953 71.408876 0 1 -29.44336,4.095703 131.47494,304.4953 71.408876 0 1 -28.43945,2.400391 131.47494,304.4953 71.408876 0 1 -27.12305,0.677734 131.47494,304.4953 71.408876 0 1 -25.51172,-1.052734 131.47494,304.4953 71.408876 0 1 -23.61914,-2.773437 131.47494,304.4953 71.408876 0 1 -21.46875,-4.460938 131.47494,304.4953 71.408876 0 1 -19.08203,-6.101562 131.47494,304.4953 71.408876 0 1 -16.48633,-7.673829 A 131.47494,304.4953 71.408876 0 1 178.5625,-80 a 131.47494,304.4953 71.408876 0 1 -2.87695,-2.814453 409.60335,412.36592 7.8407079e-5 0 0 -0.98047,2.234375 409.60335,412.36592 7.8407079e-5 0 0 -11.19531,33.625 z"
           transform="scale(0.26458333)" />
        <path
           id="path25401"
           style="opacity:1;fill:#cee6ac;fill-opacity:1;stroke:#cee6ac;stroke-width:7.55906;stroke-miterlimit:4;stroke-dasharray:none;stroke-opacity:1"
           d="m 148.1582,44.154297 a 196.76392,374.53783 64.517614 0 0 8.95899,9.289062 196.76392,374.53783 64.517614 0 0 16.91601,12.542969 196.76392,374.53783 64.517614 0 0 19.74805,10.529297 196.76392,374.53783 64.517614 0 0 22.39063,8.416016 196.76392,374.53783 64.517614 0 0 24.8164,6.220703 196.76392,374.53783 64.517614 0 0 27.00391,3.966797 196.76392,374.53783 64.517614 0 0 28.93164,1.673828 196.76392,374.53783 64.517614 0 0 30.58203,-0.636719 196.76392,374.53783 64.517614 0 0 31.93555,-2.9375 196.76392,374.53783 64.517614 0 0 32.98242,-5.214844 196.76392,374.53783 64.517614 0 0 33.71094,-7.4375 196.76392,374.53783 64.517614 0 0 34.11523,-9.589844 196.76392,374.53783 64.517614 0 0 11.64844,-3.740234 196.76392,374.53783 64.517614 0 0 11.64453,-3.974609 196.76392,374.53783 64.517614 0 0 11.625,-4.205078 196.76392,374.53783 64.517614 0 0 11.59765,-4.431641 196.76392,374.53783 64.517614 0 0 11.55274,-4.652344 196.76392,374.53783 64.517614 0 0 11.49609,-4.867187 196.76392,374.53783 64.517614 0 0 11.42969,-5.076172 196.76392,374.53783 64.517614 0 0 11.3457,-5.28125 196.76392,374.53783 64.517614 0 0 11.25196,-5.480469 196.76392,374.53783 64.517614 0 0 11.14648,-5.671875 196.76392,374.53783 64.517614 0 0 11.02539,-5.859375 196.76392,374.53783 64.517614 0 0 10.89453,-6.037109 196.76392,374.53783 64.517614 0 0 10.75,-6.2109378 196.76392,374.53783 64.517614 0 0 10.59571,-6.37695308 196.76392,374.53783 64.517614 0 0 10.42578,-6.53515622 196.76392,374.53783 64.517614 0 0 10.24804,-6.6874999 196.76392,374.53783 64.517614 0 0 10.05665,-6.830078 196.76392,374.53783 64.517614 0 0 9.85546,-6.966797 196.76392,374.53783 64.517614 0 0 9.64258,-7.095703 196.76392,374.53783 64.517614 0 0 9.41797,-7.214844 196.76392,374.53783 64.517614 0 0 9.18359,-7.328125 196.76392,374.53783 64.517614 0 0 8.93946,-7.433594 196.76392,374.53783 64.517614 0 0 8.68554,-7.529297 196.76392,374.53783 64.517614 0 0 8.41993,-7.615234 196.76392,374.53783 64.517614 0 0 8.14843,-7.697266 196.76392,374.53783 64.517614 0 0 7.86328,-7.765625 196.76392,374.53783 64.517614 0 0 7.57422,-7.828125 196.76392,374.53783 64.517614 0 0 7.27149,-7.880864 196.76392,374.53783 64.517614 0 0 6.96484,-7.92578 196.76392,374.53783 64.517614 0 0 6.65039,-7.96093 196.76392,374.53783 64.517614 0 0 6.32617,-7.98633 196.76392,374.53783 64.517614 0 0 5.99415,-8.00586 196.76392,374.53783 64.517614 0 0 5.6582,-8.01367 196.76392,374.53783 64.517614 0 0 5.31445,-8.01367 196.76392,374.53783 64.517614 0 0 4.9668,-8.00391 196.76392,374.53783 64.517614 0 0 4.61133,-7.98633 196.76392,374.53783 64.517614 0 0 4.25,-7.95898 196.76392,374.53783 64.517614 0 0 3.88672,-7.92383 196.76392,374.53783 64.517614 0 0 3.51562,-7.87891 196.76392,374.53783 64.517614 0 0 3.14453,-7.82422 196.76392,374.53783 64.517614 0 0 2.76758,-7.76367 196.76392,374.53783 64.517614 0 0 2.38867,-7.69141 196.76392,374.53783 64.517614 0 0 2.00391,-7.61132 196.76392,374.53783 64.517614 0 0 1.62109,-7.52344 196.76392,374.53783 64.517614 0 0 1.23438,-7.42774 196.76392,374.53783 64.517614 0 0 0.84765,-7.32226 196.76392,374.53783 64.517614 0 0 0.36328,-5.69922 409.60335,412.36592 7.8407079e-5 0 0 -13.00586,-10.87305 409.60335,412.36592 7.8407079e-5 0 0 -31.21289,-21.52539 409.60335,412.36592 7.8407079e-5 0 0 -9.39648,-5.26758 158.48615,323.79105 68.222423 0 1 2.53516,9.50391 158.48615,323.79105 68.222423 0 1 0.95312,17.24609 158.48615,323.79105 68.222423 0 1 -0.44141,6.10352 158.48615,323.79105 68.222423 0 1 -0.83398,6.20508 158.48615,323.79105 68.222423 0 1 -1.2207,6.30078 158.48615,323.79105 68.222423 0 1 -1.60743,6.38477 158.48615,323.79105 68.222423 0 1 -1.99414,6.46093 158.48615,323.79105 68.222423 0 1 -2.37695,6.53321 158.48615,323.79105 68.222423 0 1 -2.75391,6.59179 158.48615,323.79105 68.222423 0 1 -3.13281,6.64453 158.48615,323.79105 68.222423 0 1 -3.5039,6.68946 158.48615,323.79105 68.222423 0 1 -3.8711,6.72461 158.48615,323.79105 68.222423 0 1 -4.23242,6.75195 158.48615,323.79105 68.222423 0 1 -4.5918,6.77148 158.48615,323.79105 68.222423 0 1 -4.94336,6.7793 158.48615,323.79105 68.222423 0 1 -5.28711,6.78125 158.48615,323.79105 68.222423 0 1 -5.625,6.77344 158.48615,323.79105 68.222423 0 1 -5.95703,6.75781 158.48615,323.79105 68.222423 0 1 -6.28125,6.73242 158.48615,323.79105 68.222423 0 1 -6.5957,6.70117 158.48615,323.79105 68.222423 0 1 -6.9043,6.65626 158.48615,323.79105 68.222423 0 1 -7.20117,6.60742 158.48615,323.79105 68.222423 0 1 -7.49023,6.54882 158.48615,323.79105 68.222423 0 1 -7.77149,6.48047 158.48615,323.79105 68.222423 0 1 -8.04101,6.40625 158.48615,323.79105 68.222423 0 1 -8.29883,6.32227 158.48615,323.79105 68.222423 0 1 -8.54883,6.232421 158.48615,323.79105 68.222423 0 1 -8.78711,6.13086 158.48615,323.79105 68.222423 0 1 -9.01367,6.023437 158.48615,323.79105 68.222423 0 1 -9.22852,5.910156 158.48615,323.79105 68.222423 0 1 -9.43359,5.785157 158.48615,323.79105 68.222423 0 1 -9.625,5.65625 158.48615,323.79105 68.222423 0 1 -9.80273,5.519531 158.48615,323.79105 68.222423 0 1 -9.97071,5.375 158.48615,323.79105 68.222423 0 1 -10.125,5.224609 158.48615,323.79105 68.222423 0 1 -10.26562,5.066407 158.48615,323.79105 68.222423 0 1 -10.39258,4.902343 158.48615,323.79105 68.222423 0 1 -10.50977,4.732422 158.48615,323.79105 68.222423 0 1 -10.60937,4.556641 158.48615,323.79105 68.222423 0 1 -10.69922,4.373047 158.48615,323.79105 68.222423 0 1 -10.77148,4.185547 158.48615,323.79105 68.222423 0 1 -10.83399,3.992187 158.48615,323.79105 68.222423 0 1 -10.8789,3.792969 158.48615,323.79105 68.222423 0 1 -10.91211,3.591797 158.48615,323.79105 68.222423 0 1 -10.9336,3.3847652 158.48615,323.79105 68.222423 0 1 -10.93554,3.1699219 A 158.48615,323.79105 68.222423 0 1 421.1543,2.625 158.48615,323.79105 68.222423 0 1 389.60352,8.7226562 158.48615,323.79105 68.222423 0 1 358.82227,12.810547 158.48615,323.79105 68.222423 0 1 329.15039,14.839844 158.48615,323.79105 68.222423 0 1 300.91406,14.792974 158.48615,323.79105 68.222423 0 1 274.41992,12.666021 158.48615,323.79105 68.222423 0 1 249.96094,8.48438 158.48615,323.79105 68.222423 0 1 227.80469,2.2929738 a 158.48615,323.79105 68.222423 0 1 -19.61328,-8.1328126 158.48615,323.79105 68.222423 0 1 -16.85157,-9.9843752 158.48615,323.79105 68.222423 0 1 -13.9082,-11.728515 158.48615,323.79105 68.222423 0 1 -10.8125,-13.341797 158.48615,323.79105 68.222423 0 1 -3.10937,-6.060547 409.60335,412.36592 7.8407079e-5 0 0 -0.82813,2.490234 409.60335,412.36592 7.8407079e-5 0 0 -8.66211,37.0761721 409.60335,412.36592 7.8407079e-5 0 0 -5.22656,37.7246099 409.60335,412.36592 7.8407079e-5 0 0 -0.63477,13.818359 z"
           transform="scale(0.26458333)" />
        <path
           id="path25397"
           style="opacity:1;fill:#aae8d1;fill-opacity:1;stroke:#aae8d1;stroke-width:7.55906;stroke-miterlimit:4;stroke-dasharray:none;stroke-opacity:1"
           d="m 156.60742,155.23633 a 241.92849,419.9053 56.29936 0 0 17.05664,12.34375 241.92849,419.9053 56.29936 0 0 21.47461,11.31054 241.92849,419.9053 56.29936 0 0 23.88477,8.85352 241.92849,419.9053 56.29936 0 0 26.08594,6.32227 241.92849,419.9053 56.29936 0 0 28.06835,3.73828 241.92849,419.9053 56.29936 0 0 29.81055,1.11914 241.92849,419.9053 56.29936 0 0 31.29883,-1.50586 241.92849,419.9053 56.29936 0 0 32.51758,-4.12109 241.92849,419.9053 56.29936 0 0 33.46289,-6.69922 241.92849,419.9053 56.29936 0 0 34.11914,-9.22071 241.92849,419.9053 56.29936 0 0 34.48437,-11.66406 241.92849,419.9053 56.29936 0 0 11.75782,-4.50391 241.92849,419.9053 56.29936 0 0 11.75195,-4.77148 241.92849,419.9053 56.29936 0 0 11.73828,-5.0332 241.92849,419.9053 56.29936 0 0 11.71289,-5.29102 241.92849,419.9053 56.29936 0 0 11.67383,-5.54297 241.92849,419.9053 56.29936 0 0 11.62305,-5.78711 241.92849,419.9053 56.29936 0 0 11.56445,-6.02929 241.92849,419.9053 56.29936 0 0 11.49023,-6.26368 241.92849,419.9053 56.29936 0 0 11.40821,-6.49218 241.92849,419.9053 56.29936 0 0 11.3125,-6.71289 241.92849,419.9053 56.29936 0 0 11.20508,-6.92969 241.92849,419.9053 56.29936 0 0 11.08984,-7.138673 241.92849,419.9053 56.29936 0 0 10.96094,-7.339844 241.92849,419.9053 56.29936 0 0 10.82226,-7.533203 241.92849,419.9053 56.29936 0 0 10.67188,-7.720703 241.92849,419.9053 56.29936 0 0 10.51172,-7.898438 241.92849,419.9053 56.29936 0 0 10.34179,-8.072265 241.92849,419.9053 56.29936 0 0 10.16016,-8.234375 241.92849,419.9053 56.29936 0 0 9.9707,-8.388672 241.92849,419.9053 56.29936 0 0 9.76953,-8.537109 241.92849,419.9053 56.29936 0 0 9.5586,-8.675782 241.92849,419.9053 56.29936 0 0 9.33984,-8.804687 241.92849,419.9053 56.29936 0 0 9.10938,-8.9277346 241.92849,419.9053 56.29936 0 0 8.87304,-9.0390625 241.92849,419.9053 56.29936 0 0 8.625,-9.1425779 241.92849,419.9053 56.29936 0 0 8.3711,-9.238282 241.92849,419.9053 56.29936 0 0 8.10742,-9.322265 241.92849,419.9053 56.29936 0 0 7.83594,-9.400391 241.92849,419.9053 56.29936 0 0 7.55664,-9.464844 241.92849,419.9053 56.29936 0 0 7.26953,-9.52539 241.92849,419.9053 56.29936 0 0 6.97656,-9.572266 241.92849,419.9053 56.29936 0 0 6.67578,-9.609375 241.92849,419.9053 56.29936 0 0 6.36719,-9.640625 241.92849,419.9053 56.29936 0 0 6.05469,-9.660156 241.92849,419.9053 56.29936 0 0 5.73632,-9.67187 241.92849,419.9053 56.29936 0 0 5.40821,-9.66993 241.92849,419.9053 56.29936 0 0 5.08008,-9.66211 241.92849,419.9053 56.29936 0 0 4.74414,-9.64453 241.92849,419.9053 56.29936 0 0 4.40429,-9.61719 241.92849,419.9053 56.29936 0 0 4.0586,-9.57812 241.92849,419.9053 56.29936 0 0 3.71093,-9.53125 241.92849,419.9053 56.29936 0 0 3.35743,-9.47656 241.92849,419.9053 56.29936 0 0 3.00195,-9.41016 241.92849,419.9053 56.29936 0 0 2.64453,-9.33594 241.92849,419.9053 56.29936 0 0 2.2832,-9.25195 241.92849,419.9053 56.29936 0 0 1.91993,-9.1582 241.92849,419.9053 56.29936 0 0 1.29296,-7.53321 409.60335,412.36592 7.8407079e-5 0 0 -16.17578,-16.28515 409.60335,412.36592 7.8407079e-5 0 0 -16.09961,-13.46094 196.76392,374.53783 64.517614 0 1 -0.36328,5.69922 196.76392,374.53783 64.517614 0 1 -0.84765,7.32226 196.76392,374.53783 64.517614 0 1 -1.23438,7.42774 196.76392,374.53783 64.517614 0 1 -1.62109,7.52344 196.76392,374.53783 64.517614 0 1 -2.00391,7.61132 196.76392,374.53783 64.517614 0 1 -2.38867,7.69141 196.76392,374.53783 64.517614 0 1 -2.76758,7.76367 196.76392,374.53783 64.517614 0 1 -3.14453,7.82422 196.76392,374.53783 64.517614 0 1 -3.51562,7.87891 196.76392,374.53783 64.517614 0 1 -3.88672,7.92383 196.76392,374.53783 64.517614 0 1 -4.25,7.95898 196.76392,374.53783 64.517614 0 1 -4.61133,7.98633 196.76392,374.53783 64.517614 0 1 -4.9668,8.00391 196.76392,374.53783 64.517614 0 1 -5.31445,8.01367 196.76392,374.53783 64.517614 0 1 -5.6582,8.01367 196.76392,374.53783 64.517614 0 1 -5.99415,8.00586 196.76392,374.53783 64.517614 0 1 -6.32617,7.98633 196.76392,374.53783 64.517614 0 1 -6.65039,7.96093 196.76392,374.53783 64.517614 0 1 -6.96484,7.92578 196.76392,374.53783 64.517614 0 1 -7.27149,7.880864 196.76392,374.53783 64.517614 0 1 -7.57422,7.828125 196.76392,374.53783 64.517614 0 1 -7.86328,7.765625 196.76392,374.53783 64.517614 0 1 -8.14843,7.697266 196.76392,374.53783 64.517614 0 1 -8.41993,7.615234 196.76392,374.53783 64.517614 0 1 -8.68554,7.529297 196.76392,374.53783 64.517614 0 1 -8.93946,7.433594 196.76392,374.53783 64.517614 0 1 -9.18359,7.328125 196.76392,374.53783 64.517614 0 1 -9.41797,7.214844 196.76392,374.53783 64.517614 0 1 -9.64258,7.095703 196.76392,374.53783 64.517614 0 1 -9.85546,6.966797 196.76392,374.53783 64.517614 0 1 -10.05665,6.830078 196.76392,374.53783 64.517614 0 1 -10.24804,6.6874999 196.76392,374.53783 64.517614 0 1 -10.42578,6.53515622 196.76392,374.53783 64.517614 0 1 -10.59571,6.37695308 196.76392,374.53783 64.517614 0 1 -10.75,6.2109378 196.76392,374.53783 64.517614 0 1 -10.89453,6.037109 196.76392,374.53783 64.517614 0 1 -11.02539,5.859375 196.76392,374.53783 64.517614 0 1 -11.14648,5.671875 196.76392,374.53783 64.517614 0 1 -11.25196,5.480469 196.76392,374.53783 64.517614 0 1 -11.3457,5.28125 196.76392,374.53783 64.517614 0 1 -11.42969,5.076172 196.76392,374.53783 64.517614 0 1 -11.49609,4.867187 196.76392,374.53783 64.517614 0 1 -11.55274,4.652344 196.76392,374.53783 64.517614 0 1 -11.59765,4.431641 196.76392,374.53783 64.517614 0 1 -11.625,4.205078 196.76392,374.53783 64.517614 0 1 -11.64453,3.974609 196.76392,374.53783 64.517614 0 1 -11.64844,3.740234 196.76392,374.53783 64.517614 0 1 -34.11523,9.589844 196.76392,374.53783 64.517614 0 1 -33.71094,7.4375 196.76392,374.53783 64.517614 0 1 -32.98242,5.214844 196.76392,374.53783 64.517614 0 1 -31.93555,2.9375 196.76392,374.53783 64.517614 0 1 -30.58203,0.636719 196.76392,374.53783 64.517614 0 1 -28.93164,-1.673828 196.76392,374.53783 64.517614 0 1 -27.00391,-3.966797 196.76392,374.53783 64.517614 0 1 -24.8164,-6.220703 196.76392,374.53783 64.517614 0 1 -22.39063,-8.416016 196.76392,374.53783 64.517614 0 1 -19.74805,-10.529297 196.76392,374.53783 64.517614 0 1 -16.91601,-12.542969 196.76392,374.53783 64.517614 0 1 -8.95899,-9.289062 409.60335,412.36592 7.8407079e-5 0 0 -1.11328,24.230469 409.60335,412.36592 7.8407079e-5 0 0 1.74805,38.048824 409.60335,412.36592 7.8407079e-5 0 0 5.22656,37.72266 409.60335,412.36592 7.8407079e-5 0 0 2.58789,11.08008 z"
           transform="scale(0.26458333)" />
        <path
           id="path25393"
           style="opacity:1;fill:#71ced6;fill-opacity:1;stroke:#71ced6;stroke-width:7.55906;stroke-miterlimit:4;stroke-dasharray:none;stroke-opacity:1"
           d="m 180.31836,230.14648 c 3.60743,2.04522 7.27204,4.03524 11.00586,5.94922 3.92864,2.01385 7.92278,3.95402 11.97851,5.82227 4.05574,1.86825 8.17212,3.66439 12.3418,5.38672 4.16968,1.72232 8.39358,3.37118 12.66406,4.94726 4.27048,1.57609 8.58718,3.0783 12.94532,4.50782 4.35813,1.42952 8.75681,2.78572 13.18945,4.06835 4.43264,1.28264 8.90053,2.49152 13.39453,3.62696 4.494,1.13543 9.01443,2.19763 13.55664,3.18554 4.54221,0.98792 9.10632,1.90213 13.68359,2.74219 4.57728,0.84007 9.16839,1.60693 13.76758,2.29883 4.5992,0.6919 9.20649,1.30814 13.81446,1.85156 4.60797,0.54342 9.21671,1.01359 13.82031,1.40821 4.6036,0.39461 9.20103,0.71544 13.78711,0.96093 4.58608,0.2455 9.16138,0.41567 13.7168,0.51172 4.55541,0.096 9.09191,0.11622 13.60351,0.0625 4.5116,-0.0537 8.99848,-0.18096 13.45313,-0.38476 4.45464,-0.2038 8.87717,-0.48369 13.26171,-0.83789 4.38454,-0.35421 8.72997,-0.78413 13.03125,-1.28907 4.30129,-0.50493 8.55878,-1.08425 12.76368,-1.74023 4.20489,-0.65598 8.35777,-1.38797 12.45312,-2.19531 2.2497,-0.4435 4.59759,-0.98025 7.04102,-1.60938 2.44342,-0.62912 4.98272,-1.35122 7.60937,-2.16211 2.62665,-0.81088 5.34125,-1.71044 8.14063,-2.69922 2.79938,-0.98877 5.68292,-2.06571 8.64453,-3.22851 2.96161,-1.16281 6.00189,-2.41118 9.11523,-3.74414 3.11335,-1.33297 6.30011,-2.75074 9.55469,-4.25 3.25458,-1.49926 6.57757,-3.0805 9.96289,-4.74219 3.38532,-1.66169 6.83234,-3.40436 10.33789,-5.22461 3.50555,-1.82025 7.0683,-3.71842 10.68359,-5.69336 3.6153,-1.97494 7.28352,-4.02657 10.99805,-6.15234 3.71454,-2.12577 7.47602,-4.32493 11.2793,-6.59766 3.80327,-2.27273 7.64778,-4.61933 11.5293,-7.03516 3.88151,-2.41582 7.80073,-4.90197 11.75,-7.45703 3.94926,-2.55505 7.92903,-5.17872 11.93554,-7.86914 4.00651,-2.69041 8.03854,-5.44762 12.0918,-8.26953 4.05326,-2.82191 8.12729,-5.70866 12.2168,-8.6582 4.08951,-2.94954 8.19528,-5.96186 12.31054,-9.03516 4.11526,-3.0733 8.24058,-6.20719 12.3711,-9.40039 4.13051,-3.1932 8.26512,-6.44468 12.40039,-9.7539 4.13527,-3.30923 8.27086,-6.67627 12.40039,-10.09766 4.12952,-3.42139 8.2539,-6.89805 12.36719,-10.42773 4.11328,-3.52969 8.21619,-7.11199 12.30273,-10.7461 4.08654,-3.63411 8.15578,-7.32001 12.20508,-11.05469 4.0493,-3.73467 8.07851,-7.51823 12.08008,-11.34961 4.00156,-3.831367 7.97659,-7.710561 11.91992,-11.634761 3.94332,-3.924201 7.85392,-7.893087 11.72851,-11.90625 3.8746,-4.013164 7.71246,-8.069709 11.50782,-12.167969 3.79535,-4.09826 7.54828,-8.23848 11.2539,-12.417969 3.70563,-4.179489 7.36336,-8.399397 10.96875,-12.65625 3.6054,-4.256852 7.15963,-8.55051 10.6543,-12.880859 3.49467,-4.330349 6.93125,-8.697678 10.30469,-13.097656 3.37344,-4.399979 6.68211,-8.8330866 9.92382,-13.2988285 1.89585,-2.6116981 3.75449,-5.2445895 5.57618,-7.8964844 1.82168,-2.6518948 3.60687,-5.3226672 5.35547,-8.0117191 1.74859,-2.689051 3.46209,-5.395972 5.13867,-8.11914 1.67658,-2.723168 3.31623,-5.462553 4.92187,-8.216797 3.21129,-5.508489 6.28282,-11.076853 9.2168,-16.691406 2.93397,-5.614554 5.73122,-11.274406 8.39648,-16.970703 2.66527,-5.696298 5.19836,-11.42792 7.60352,-17.181641 2.40516,-5.753721 4.68229,-11.529584 6.83594,-17.316406 2.15364,-5.786821 4.18301,-11.585251 6.09375,-17.380861 1.91073,-5.7956 3.70248,-11.58908 5.3789,-17.36914 1.67643,-5.78006 3.23874,-11.54691 4.68946,-17.28711 1.45071,-5.7402 2.78984,-11.45484 4.02343,-17.13086 1.2336,-5.67602 2.36164,-11.31287 3.38672,-16.90039 0.78351,-4.27073 1.45302,-8.48101 2.11914,-12.6875 a 409.60335,412.36592 7.8407079e-5 0 0 -11.52734,-13.97461 409.60335,412.36592 7.8407079e-5 0 0 -10.57813,-10.64844 241.92849,419.9053 56.29936 0 1 -1.29296,7.53321 241.92849,419.9053 56.29936 0 1 -1.91993,9.1582 241.92849,419.9053 56.29936 0 1 -2.2832,9.25195 241.92849,419.9053 56.29936 0 1 -2.64453,9.33594 241.92849,419.9053 56.29936 0 1 -3.00195,9.41016 241.92849,419.9053 56.29936 0 1 -3.35743,9.47656 241.92849,419.9053 56.29936 0 1 -3.71093,9.53125 241.92849,419.9053 56.29936 0 1 -4.0586,9.57812 241.92849,419.9053 56.29936 0 1 -4.40429,9.61719 241.92849,419.9053 56.29936 0 1 -4.74414,9.64453 241.92849,419.9053 56.29936 0 1 -5.08008,9.66211 241.92849,419.9053 56.29936 0 1 -5.40821,9.66993 241.92849,419.9053 56.29936 0 1 -5.73632,9.67187 241.92849,419.9053 56.29936 0 1 -6.05469,9.660156 241.92849,419.9053 56.29936 0 1 -6.36719,9.640625 241.92849,419.9053 56.29936 0 1 -6.67578,9.609375 241.92849,419.9053 56.29936 0 1 -6.97656,9.572266 241.92849,419.9053 56.29936 0 1 -7.26953,9.52539 241.92849,419.9053 56.29936 0 1 -7.55664,9.464844 241.92849,419.9053 56.29936 0 1 -7.83594,9.400391 241.92849,419.9053 56.29936 0 1 -8.10742,9.322265 241.92849,419.9053 56.29936 0 1 -8.3711,9.238282 241.92849,419.9053 56.29936 0 1 -8.625,9.1425779 241.92849,419.9053 56.29936 0 1 -8.87304,9.0390625 241.92849,419.9053 56.29936 0 1 -9.10938,8.9277346 241.92849,419.9053 56.29936 0 1 -9.33984,8.804687 241.92849,419.9053 56.29936 0 1 -9.5586,8.675782 241.92849,419.9053 56.29936 0 1 -9.76953,8.537109 241.92849,419.9053 56.29936 0 1 -9.9707,8.388672 241.92849,419.9053 56.29936 0 1 -10.16016,8.234375 241.92849,419.9053 56.29936 0 1 -10.34179,8.072265 241.92849,419.9053 56.29936 0 1 -10.51172,7.898438 241.92849,419.9053 56.29936 0 1 -10.67188,7.720703 241.92849,419.9053 56.29936 0 1 -10.82226,7.533203 241.92849,419.9053 56.29936 0 1 -10.96094,7.339844 241.92849,419.9053 56.29936 0 1 -11.08984,7.138673 241.92849,419.9053 56.29936 0 1 -11.20508,6.92969 241.92849,419.9053 56.29936 0 1 -11.3125,6.71289 241.92849,419.9053 56.29936 0 1 -11.40821,6.49218 241.92849,419.9053 56.29936 0 1 -11.49023,6.26368 241.92849,419.9053 56.29936 0 1 -11.56445,6.02929 241.92849,419.9053 56.29936 0 1 -11.62305,5.78711 241.92849,419.9053 56.29936 0 1 -11.67383,5.54297 241.92849,419.9053 56.29936 0 1 -11.71289,5.29102 241.92849,419.9053 56.29936 0 1 -11.73828,5.0332 241.92849,419.9053 56.29936 0 1 -11.75195,4.77148 241.92849,419.9053 56.29936 0 1 -11.75782,4.50391 241.92849,419.9053 56.29936 0 1 -34.48437,11.66406 241.92849,419.9053 56.29936 0 1 -34.11914,9.22071 241.92849,419.9053 56.29936 0 1 -33.46289,6.69922 241.92849,419.9053 56.29936 0 1 -32.51758,4.12109 241.92849,419.9053 56.29936 0 1 -31.29883,1.50586 241.92849,419.9053 56.29936 0 1 -29.81055,-1.11914 241.92849,419.9053 56.29936 0 1 -28.06835,-3.73828 241.92849,419.9053 56.29936 0 1 -26.08594,-6.32227 241.92849,419.9053 56.29936 0 1 -23.88477,-8.85352 241.92849,419.9053 56.29936 0 1 -21.47461,-11.31054 241.92849,419.9053 56.29936 0 1 -17.05664,-12.34375 409.60335,412.36592 7.8407079e-5 0 0 6.07422,25.99805 409.60335,412.36592 7.8407079e-5 0 0 12.02344,36.11328 409.60335,412.36592 7.8407079e-5 0 0 5.61328,12.79882 z"
           transform="scale(0.26458333)" />
        <path
           id="path25389"
           style="opacity:1;fill:#3fa6c9;fill-opacity:1;stroke:#3fa6c9;stroke-width:7.55906;stroke-miterlimit:4;stroke-dasharray:none;stroke-opacity:1"
           d="m 330.46094,411.70312 c 2.73036,-0.26428 5.43811,-0.44202 8.17187,-0.75781 3.4613,-0.39983 6.92094,-0.84175 10.36524,-1.33203 3.44429,-0.49028 6.87319,-1.02765 10.27539,-1.61719 3.4022,-0.58954 6.77827,-1.23208 10.11328,-1.92968 3.33501,-0.69761 6.63033,-1.45115 9.87305,-2.26563 3.24272,-0.81448 6.4313,-1.68874 9.55664,-2.6289 3.12533,-0.94017 6.18706,-1.94683 9.16992,-3.02149 5.08048,-1.83038 10.11662,-3.76763 15.10937,-5.80664 4.99275,-2.03901 9.94135,-4.17988 14.84961,-6.41406 4.90826,-2.23418 9.77455,-4.56262 14.60157,-6.97852 4.82701,-2.4159 9.61426,-4.91779 14.36328,-7.50195 4.74901,-2.58416 9.46051,-5.24931 14.13476,-7.98828 4.67426,-2.73897 9.31132,-5.55327 13.91406,-8.4336 4.60275,-2.88032 9.17061,-5.82771 13.70508,-8.83593 4.53447,-3.00822 9.03642,-6.07656 13.50586,-9.19922 4.46944,-3.12266 8.9068,-6.29979 13.31446,-9.52344 4.40765,-3.22365 8.78565,-6.4935 13.13476,-9.80469 4.34911,-3.31118 8.66909,-6.66356 12.96289,-10.04883 4.29381,-3.38526 8.56099,-6.80411 12.80274,-10.25 8.48349,-6.89177 16.86543,-13.89177 25.16015,-20.94531 8.29472,-7.05353 16.50288,-14.15992 24.63477,-21.26758 3.44367,-3.00993 6.96361,-6.01188 10.55078,-9.00781 3.58717,-2.99593 7.24119,-5.98669 10.95508,-8.97265 7.42777,-5.97193 15.09176,-11.92653 22.92578,-17.88282 7.83401,-5.95628 15.8373,-11.91376 23.94336,-17.88672 8.10606,-5.97296 16.31468,-11.96243 24.55859,-17.98437 8.24391,-6.02194 16.52392,-12.07646 24.77149,-18.17969 8.24756,-6.10322 16.46305,-12.25584 24.58007,-18.47266 8.11702,-6.21681 16.136,-12.49861 23.98828,-18.86132 3.92615,-3.18136 7.80974,-6.38158 11.64454,-9.60547 3.83479,-3.22389 7.62098,-6.46977 11.34765,-9.74024 3.72668,-3.27046 7.39432,-6.56564 10.9961,-9.886715 3.60178,-3.321072 7.13754,-6.669202 10.59765,-10.044922 3.46011,-3.37572 6.84482,-6.778484 10.14649,-10.212891 3.30166,-3.434406 6.52003,-6.899353 9.64648,-10.396484 3.12645,-3.497131 6.16125,-7.027903 9.0957,-10.591797 2.93446,-3.563894 5.76845,-7.162179 8.49415,-10.796875 2.72569,-3.634695 5.34164,-7.30609 7.84179,-11.015625 2.50015,-3.709535 4.88475,-7.455727 7.14258,-11.24414 2.25783,-3.788414 4.38993,-7.618905 6.38867,-11.490235 1.99875,-3.8713297 3.86306,-7.7839023 5.58594,-11.7421872 1.72288,-3.958285 3.30413,-7.9624405 4.73437,-12.0117188 0.71512,-2.024639 1.39244,-4.059277 2.03125,-6.107422 0.63882,-2.048145 1.23842,-4.109485 1.79883,-6.18164 0.56042,-2.072156 1.08259,-4.155283 1.5625,-6.251954 0.47992,-2.09667 0.91909,-4.206434 1.31641,-6.328125 0.39732,-2.12169 0.75182,-4.255128 1.06445,-6.402343 0.31263,-2.147215 0.58276,-4.307225 0.8086,-6.480469 0.22583,-2.173245 0.40796,-4.360768 0.54492,-6.560547 0.13695,-2.199779 0.22942,-4.411854 0.27539,-6.638672 0.046,-2.226818 0.0452,-4.468294 -0.002,-6.722656 -0.0471,-2.254362 -0.14091,-4.522277 -0.2832,-6.804688 -0.31839,-5.107389 -0.70846,-10.265552 -1.17383,-15.46289 -0.46536,-5.197339 -1.00558,-10.433204 -1.625,-15.701174 -0.61941,-5.26797 -1.31907,-10.56744 -2.09961,-15.88672 -0.78054,-5.31927 -1.64305,-10.6585 -2.59179,-16.00976 -0.94875,-5.35126 -1.9834,-10.7142 -3.10742,-16.07813 -1.12403,-5.36393 -2.33815,-10.72866 -3.64454,-16.08593 -0.19902,-0.81617 -0.43727,-1.62761 -0.64062,-2.44336 a 409.60335,412.36592 7.8407079e-5 0 0 -4.83008,-7.09961 409.60335,412.36592 7.8407079e-5 0 0 -12.64258,-15.32813 c -0.66612,4.20649 -1.33563,8.41677 -2.11914,12.6875 -1.02508,5.58752 -2.15312,11.22437 -3.38672,16.90039 -1.23359,5.67602 -2.57272,11.39066 -4.02343,17.13086 -1.45072,5.7402 -3.01303,11.50705 -4.68946,17.28711 -1.67642,5.78006 -3.46817,11.57354 -5.3789,17.36914 -1.91074,5.79561 -3.94011,11.59404 -6.09375,17.380861 -2.15365,5.786822 -4.43078,11.562685 -6.83594,17.316406 -2.40516,5.753721 -4.93825,11.485343 -7.60352,17.181641 -2.66526,5.696297 -5.46251,11.356149 -8.39648,16.970703 -2.93398,5.614553 -6.00551,11.182917 -9.2168,16.691406 -1.60564,2.754244 -3.24529,5.493629 -4.92187,8.216797 -1.67658,2.723168 -3.39008,5.430089 -5.13867,8.11914 -1.7486,2.6890519 -3.53379,5.3598243 -5.35547,8.0117191 -1.82169,2.6518949 -3.68033,5.2847863 -5.57618,7.8964844 -3.24171,4.4657419 -6.55038,8.8988495 -9.92382,13.2988285 -3.37344,4.399978 -6.81002,8.767307 -10.30469,13.097656 -3.49467,4.330349 -7.0489,8.624007 -10.6543,12.880859 -3.60539,4.256853 -7.26312,8.476761 -10.96875,12.65625 -3.70562,4.179489 -7.45855,8.319709 -11.2539,12.417969 -3.79536,4.09826 -7.63322,8.154805 -11.50782,12.167969 -3.87459,4.013163 -7.78519,7.982049 -11.72851,11.90625 -3.94333,3.9242 -7.91836,7.803394 -11.91992,11.634761 -4.00157,3.83138 -8.03078,7.61494 -12.08008,11.34961 -4.0493,3.73468 -8.11854,7.42058 -12.20508,11.05469 -4.08654,3.63411 -8.18945,7.21641 -12.30273,10.7461 -4.11329,3.52968 -8.23767,7.00634 -12.36719,10.42773 -4.12953,3.42139 -8.26512,6.78843 -12.40039,10.09766 -4.13527,3.30922 -8.26988,6.5607 -12.40039,9.7539 -4.13052,3.1932 -8.25584,6.32709 -12.3711,9.40039 -4.11526,3.0733 -8.22103,6.08562 -12.31054,9.03516 -4.08951,2.94954 -8.16354,5.83629 -12.2168,8.6582 -4.05326,2.82191 -8.08529,5.57912 -12.0918,8.26953 -4.00651,2.69042 -7.98628,5.31409 -11.93554,7.86914 -3.94927,2.55506 -7.86849,5.04121 -11.75,7.45703 -3.88152,2.41583 -7.72603,4.76243 -11.5293,7.03516 -3.80328,2.27273 -7.56476,4.47189 -11.2793,6.59766 -3.71453,2.12577 -7.38275,4.1774 -10.99805,6.15234 -3.61529,1.97494 -7.17804,3.87311 -10.68359,5.69336 -3.50555,1.82025 -6.95257,3.56292 -10.33789,5.22461 -3.38532,1.66169 -6.70831,3.24293 -9.96289,4.74219 -3.25458,1.49926 -6.44134,2.91703 -9.55469,4.25 -3.11334,1.33296 -6.15362,2.58133 -9.11523,3.74414 -2.96161,1.1628 -5.84515,2.23974 -8.64453,3.22851 -2.79938,0.98878 -5.51398,1.88834 -8.14063,2.69922 -2.62665,0.81089 -5.16595,1.53299 -7.60937,2.16211 -2.44343,0.62913 -4.79132,1.16588 -7.04102,1.60938 -4.09535,0.80734 -8.24823,1.53933 -12.45312,2.19531 -4.2049,0.65598 -8.46239,1.2353 -12.76368,1.74023 -4.30128,0.50494 -8.64671,0.93486 -13.03125,1.28907 -4.38454,0.3542 -8.80707,0.63409 -13.26171,0.83789 -4.45465,0.2038 -8.94153,0.33105 -13.45313,0.38476 -4.5116,0.0537 -9.0481,0.0335 -13.60351,-0.0625 -4.55542,-0.096 -9.13072,-0.26622 -13.7168,-0.51172 -4.58608,-0.24549 -9.18351,-0.56632 -13.78711,-0.96093 -4.6036,-0.39462 -9.21234,-0.86479 -13.82031,-1.40821 -4.60797,-0.54342 -9.21526,-1.15966 -13.81446,-1.85156 -4.59919,-0.6919 -9.1903,-1.45876 -13.76758,-2.29883 -4.57727,-0.84006 -9.14138,-1.75427 -13.68359,-2.74219 -4.54221,-0.98791 -9.06264,-2.05011 -13.55664,-3.18554 -4.494,-1.13544 -8.96189,-2.34432 -13.39453,-3.62696 -4.43264,-1.28263 -8.83132,-2.63883 -13.18945,-4.06835 -4.35814,-1.42952 -8.67484,-2.93173 -12.94532,-4.50782 -4.27048,-1.57608 -8.49438,-3.22494 -12.66406,-4.94726 -4.16968,-1.72233 -8.28606,-3.51847 -12.3418,-5.38672 -4.05573,-1.86825 -8.04987,-3.80842 -11.97851,-5.82227 -3.73382,-1.91398 -7.39843,-3.904 -11.00586,-5.94922 a 409.60335,412.36592 7.8407079e-5 0 0 9.66797,22.04493 409.60335,412.36592 7.8407079e-5 0 0 18.41015,33.27539 409.60335,412.36592 7.8407079e-5 0 0 21.38086,31.42382 409.60335,412.36592 7.8407079e-5 0 0 24.16993,29.30274 409.60335,412.36592 7.8407079e-5 0 0 26.7539,26.93359 409.60335,412.36592 7.8407079e-5 0 0 29.10547,24.33203 409.60335,412.36592 7.8407079e-5 0 0 20.6543,14.24414 z"
           transform="scale(0.26458333)" />
        <path
           id="path25385"
           style="opacity:1;fill:#2b81bc;fill-opacity:1;stroke:#2b81bc;stroke-width:7.55906;stroke-miterlimit:4;stroke-dasharray:none;stroke-opacity:1"
           d="m 963.59961,23.808594 a 409.60335,412.36592 7.8407079e-5 0 0 -4.32227,-31.1972659 409.60335,412.36592 7.8407079e-5 0 0 -8.66211,-37.0761721 409.60335,412.36592 7.8407079e-5 0 0 -12.02343,-36.115234 409.60335,412.36592 7.8407079e-5 0 0 -15.28125,-34.843752 409.60335,412.36592 7.8407079e-5 0 0 -18.41016,-33.27539 409.60335,412.36592 7.8407079e-5 0 0 -16.55078,-24.32226 c 0.20335,0.81575 0.4416,1.62719 0.64062,2.44336 1.30639,5.35727 2.52051,10.722 3.64454,16.08593 1.12402,5.36393 2.15867,10.72687 3.10742,16.07813 0.94874,5.35126 1.81125,10.69049 2.59179,16.00976 0.78054,5.31928 1.4802,10.61875 2.09961,15.88672 0.61942,5.26797 1.15964,10.503835 1.625,15.701174 0.46537,5.197338 0.85544,10.355501 1.17383,15.46289 0.14229,2.282411 0.2361,4.550326 0.2832,6.804688 0.0471,2.254362 0.0479,4.495838 0.002,6.722656 -0.046,2.226818 -0.13844,4.438893 -0.27539,6.638672 -0.13696,2.199779 -0.31909,4.387302 -0.54492,6.560547 -0.22584,2.173244 -0.49597,4.333254 -0.8086,6.480469 -0.31263,2.147215 -0.66713,4.280653 -1.06445,6.402343 -0.39732,2.121691 -0.83649,4.231455 -1.31641,6.328125 -0.47991,2.096671 -1.00208,4.179798 -1.5625,6.251954 -0.56041,2.072155 -1.16001,4.133495 -1.79883,6.18164 -0.63881,2.048145 -1.31613,4.082783 -2.03125,6.107422 -1.43024,4.0492783 -3.01149,8.0534338 -4.73437,12.0117188 -1.72288,3.9582849 -3.58719,7.8708575 -5.58594,11.7421872 -1.99874,3.87133 -4.13084,7.701821 -6.38867,11.490235 -2.25783,3.788413 -4.64243,7.534605 -7.14258,11.24414 -2.50015,3.709535 -5.1161,7.38093 -7.84179,11.015625 -2.7257,3.634696 -5.55969,7.232981 -8.49415,10.796875 -2.93445,3.563894 -5.96925,7.094666 -9.0957,10.591797 -3.12645,3.497131 -6.34482,6.962078 -9.64648,10.396484 -3.30167,3.434407 -6.68638,6.837171 -10.14649,10.212891 -3.46011,3.37572 -6.99587,6.72385 -10.59765,10.044922 -3.60178,3.321075 -7.26942,6.616255 -10.9961,9.886715 -3.72667,3.27047 -7.51286,6.51635 -11.34765,9.74024 -3.8348,3.22389 -7.71839,6.42411 -11.64454,9.60547 -7.85228,6.36271 -15.87126,12.64451 -23.98828,18.86132 -8.11702,6.21682 -16.33251,12.36944 -24.58007,18.47266 -8.24757,6.10323 -16.52758,12.15775 -24.77149,18.17969 -8.24391,6.02194 -16.45253,12.01141 -24.55859,17.98437 -8.10606,5.97296 -16.10935,11.93044 -23.94336,17.88672 -7.83402,5.95629 -15.49801,11.91089 -22.92578,17.88282 -3.71389,2.98596 -7.36791,5.97672 -10.95508,8.97265 -3.58717,2.99593 -7.10711,5.99788 -10.55078,9.00781 -8.13189,7.10766 -16.34005,14.21405 -24.63477,21.26758 -8.29472,7.05354 -16.67666,14.05354 -25.16015,20.94531 -4.24175,3.44589 -8.50893,6.86474 -12.80274,10.25 -4.2938,3.38527 -8.61378,6.73765 -12.96289,10.04883 -4.34911,3.31119 -8.72711,6.58104 -13.13476,9.80469 -4.40766,3.22365 -8.84502,6.40078 -13.31446,9.52344 -4.46944,3.12266 -8.97139,6.191 -13.50586,9.19922 -4.53447,3.00822 -9.10233,5.95561 -13.70508,8.83593 -4.60274,2.88033 -9.2398,5.69463 -13.91406,8.4336 -4.67425,2.73897 -9.38575,5.40412 -14.13476,7.98828 -4.74902,2.58416 -9.53627,5.08605 -14.36328,7.50195 -4.82702,2.4159 -9.69331,4.74434 -14.60157,6.97852 -4.90826,2.23418 -9.85686,4.37505 -14.84961,6.41406 -4.99275,2.03901 -10.02889,3.97626 -15.10937,5.80664 -2.98286,1.07466 -6.04459,2.08132 -9.16992,3.02149 -3.12534,0.94016 -6.31392,1.81442 -9.55664,2.6289 -3.24272,0.81448 -6.53804,1.56802 -9.87305,2.26563 -3.33501,0.6976 -6.71108,1.34014 -10.11328,1.92968 -3.4022,0.58954 -6.8311,1.12691 -10.27539,1.61719 -3.4443,0.49028 -6.90394,0.9322 -10.36524,1.33203 -2.73376,0.31579 -5.44151,0.49353 -8.17187,0.75781 a 409.60335,412.36592 7.8407079e-5 0 0 10.55859,7.28126 409.60335,412.36592 7.8407079e-5 0 0 33.05274,18.53515 409.60335,412.36592 7.8407079e-5 0 0 34.61132,15.38477 409.60335,412.36592 7.8407079e-5 0 0 35.8711,12.10351 409.60335,412.36592 7.8407079e-5 0 0 36.83008,8.72071 409.60335,412.36592 7.8407079e-5 0 0 37.06835,5.20507 c 2.26695,-1.35535 4.55786,-2.66496 6.81055,-4.04687 5.54633,-3.4024 11.04967,-6.88357 16.50781,-10.44336 5.45815,-3.55979 10.8708,-7.19812 16.23829,-10.91016 5.36748,-3.71203 10.68856,-7.49828 15.96289,-11.35742 5.27433,-3.85913 10.50295,-7.78993 15.68164,-11.79101 5.17869,-4.00109 10.30811,-8.07305 15.38867,-12.21094 5.08056,-4.1379 10.11185,-8.34178 15.0918,-12.61133 4.97994,-4.26955 9.90831,-8.60393 14.78515,-13 4.87685,-4.39607 9.7014,-8.85365 14.47266,-13.37109 4.77125,-4.51744 9.48916,-9.09486 14.15234,-13.72852 7.65868,-7.6102 15.83875,-15.47295 24.43164,-23.58594 8.59289,-8.11298 17.59927,-16.47681 26.91211,-25.08789 9.31285,-8.61107 18.93147,-17.46974 28.75,-26.57422 9.81853,-9.10448 19.83731,-18.45368 29.94727,-28.04687 5.05498,-4.7966 10.13304,-9.65437 15.2207,-14.57227 5.08766,-4.91789 10.18379,-9.89693 15.27734,-14.93554 5.09356,-5.03861 10.18319,-10.13619 15.25586,-15.29493 5.07268,-5.15873 10.1293,-10.37797 15.1543,-15.65625 5.02501,-5.27827 10.0182,-10.61644 14.96875,-16.01367 4.95056,-5.39723 9.85771,-10.85354 14.70703,-16.36914 4.84932,-5.5156 9.64198,-11.08928 14.36328,-16.72265 4.72131,-5.63338 9.371,-11.3256 13.9375,-17.07618 4.56651,-5.75057 9.04867,-11.56055 13.4336,-17.42773 4.38492,-5.86718 8.67305,-11.79219 12.84961,-17.77539 4.17655,-5.983207 8.24218,-12.024406 12.18359,-18.123048 3.94141,-6.098643 7.75802,-12.255257 11.4375,-18.46875 3.67948,-6.213493 7.22252,-12.484743 10.61328,-18.8125 1.69538,-3.163878 3.35252,-6.340869 4.9707,-9.533203 1.61818,-3.192335 3.19675,-6.398424 4.73438,-9.619141 0.31039,-0.650142 0.59922,-1.307687 0.90625,-1.958984 z"
           transform="scale(0.26458333)" />
        <path
           id="path25371"
           style="opacity:1;fill:#1d5cab;fill-opacity:1;stroke:#1d5cab;stroke-width:7.55906;stroke-miterlimit:4;stroke-dasharray:none;stroke-opacity:1"
           d="m 961.45508,131.1543 a 409.60335,412.36592 7.8407079e-5 0 0 1.5664,-11.08594 409.60335,412.36592 7.8407079e-5 0 0 1.41211,-12.87695 409.60335,412.36592 7.8407079e-5 0 0 1.00977,-12.914066 409.60335,412.36592 7.8407079e-5 0 0 0.60742,-12.939453 409.60335,412.36592 7.8407079e-5 0 0 0.20117,-12.953125 409.60335,412.36592 7.8407079e-5 0 0 -1.74804,-38.048828 409.60335,412.36592 7.8407079e-5 0 0 -0.9043,-6.527344 c -0.30703,0.651297 -0.59586,1.308842 -0.90625,1.958984 -1.53763,3.220717 -3.1162,6.426806 -4.73438,9.619141 -1.61818,3.192334 -3.27532,6.369325 -4.9707,9.533203 -3.39076,6.327757 -6.9338,12.599007 -10.61328,18.8125 -3.67948,6.213493 -7.49609,12.370107 -11.4375,18.46875 -3.94141,6.098642 -8.00704,12.139841 -12.18359,18.123048 -4.17656,5.9832 -8.46469,11.90821 -12.84961,17.77539 -4.38493,5.86718 -8.86709,11.67716 -13.4336,17.42773 -4.5665,5.75058 -9.21619,11.4428 -13.9375,17.07618 -4.7213,5.63337 -9.51396,11.20705 -14.36328,16.72265 -4.84932,5.5156 -9.75647,10.97191 -14.70703,16.36914 -4.95055,5.39723 -9.94374,10.7354 -14.96875,16.01367 -5.025,5.27828 -10.08162,10.49752 -15.1543,15.65625 -5.07267,5.15874 -10.1623,10.25632 -15.25586,15.29493 -5.09355,5.03861 -10.18968,10.01765 -15.27734,14.93554 -5.08766,4.9179 -10.16572,9.77567 -15.2207,14.57227 -10.10996,9.59319 -20.12874,18.94239 -29.94727,28.04687 -9.81853,9.10448 -19.43715,17.96315 -28.75,26.57422 -9.31284,8.61108 -18.31922,16.97491 -26.91211,25.08789 -8.59289,8.11299 -16.77296,15.97574 -24.43164,23.58594 -4.66318,4.63366 -9.38109,9.21108 -14.15234,13.72852 -4.77126,4.51744 -9.59581,8.97502 -14.47266,13.37109 -4.87684,4.39607 -9.80521,8.73045 -14.78515,13 -4.97995,4.26955 -10.01124,8.47343 -15.0918,12.61133 -5.08056,4.13789 -10.20998,8.20985 -15.38867,12.21094 -5.17869,4.00108 -10.40731,7.93188 -15.68164,11.79101 -5.27433,3.85914 -10.59541,7.64539 -15.96289,11.35742 -5.36749,3.71204 -10.78014,7.35037 -16.23829,10.91016 -5.45814,3.55979 -10.96148,7.04096 -16.50781,10.44336 -2.25269,1.38191 -4.5436,2.69152 -6.81055,4.04687 a 409.60335,412.36592 7.8407079e-5 0 0 0.40235,0.0566 409.60335,412.36592 7.8407079e-5 0 0 37.79297,1.75977 409.60335,412.36592 7.8407079e-5 0 0 12.86523,-0.20312 409.60335,412.36592 7.8407079e-5 0 0 12.85352,-0.60938 409.60335,412.36592 7.8407079e-5 0 0 12.82812,-1.01758 409.60335,412.36592 7.8407079e-5 0 0 12.79102,-1.42187 409.60335,412.36592 7.8407079e-5 0 0 12.73828,-1.82422 409.60335,412.36592 7.8407079e-5 0 0 12.67578,-2.22852 409.60335,412.36592 7.8407079e-5 0 0 12.59961,-2.62695 409.60335,412.36592 7.8407079e-5 0 0 12.51367,-3.02344 409.60335,412.36592 7.8407079e-5 0 0 12.41016,-3.41797 409.60335,412.36592 7.8407079e-5 0 0 12.29883,-3.80859 409.60335,412.36592 7.8407079e-5 0 0 12.17382,-4.19727 409.60335,412.36592 7.8407079e-5 0 0 5.52735,-2.10156 c 2.79131,-3.23073 5.57062,-6.45523 8.48633,-9.76172 4.07628,-4.62261 8.26996,-9.31977 12.5664,-14.08984 8.5929,-9.54015 17.59927,-19.37414 26.91211,-29.5 9.31285,-10.12587 18.93147,-20.54394 28.75,-31.25 9.81853,-10.70607 19.83731,-21.69972 29.94727,-32.98047 5.05498,-5.64037 10.13304,-11.35175 15.2207,-17.13477 5.08766,-5.78301 10.18379,-11.63754 15.27734,-17.5625 5.09356,-5.92495 10.18319,-11.92011 15.25586,-17.98632 5.07268,-6.06622 10.1293,-12.20337 15.1543,-18.41016 5.02501,-6.20679 10.0182,-12.48341 14.96875,-18.83008 4.95056,-6.34666 9.85771,-12.76414 14.70703,-19.25 4.84932,-6.48585 9.64198,-13.04166 14.36328,-19.66601 4.72131,-6.62436 9.371,-13.31791 13.9375,-20.08008 4.56651,-6.76217 9.04867,-13.5929 13.4336,-20.49219 4.38492,-6.89929 8.67305,-13.86662 12.84961,-20.90234 2.98268,-5.02456 5.83646,-10.12492 8.70117,-15.21875 z"
           transform="scale(0.26458333)" />
        <path
           id="path25369"
           style="opacity:1;fill:#023296;fill-opacity:1;stroke:#023296;stroke-width:7.55906;stroke-miterlimit:4;stroke-dasharray:none;stroke-opacity:1"
           d="m 961.45508,131.1543 c -2.86471,5.09383 -5.71849,10.19419 -8.70117,15.21875 -4.17656,7.03572 -8.46469,14.00305 -12.84961,20.90234 -4.38493,6.89929 -8.86709,13.73002 -13.4336,20.49219 -4.5665,6.76217 -9.21619,13.45572 -13.9375,20.08008 -4.7213,6.62435 -9.51396,13.18016 -14.36328,19.66601 -4.84932,6.48586 -9.75647,12.90334 -14.70703,19.25 -4.95055,6.34667 -9.94374,12.62329 -14.96875,18.83008 -5.025,6.20679 -10.08162,12.34394 -15.1543,18.41016 -5.07267,6.06621 -10.1623,12.06137 -15.25586,17.98632 -5.09355,5.92496 -10.18968,11.77949 -15.27734,17.5625 -5.08766,5.78302 -10.16572,11.4944 -15.2207,17.13477 -10.10996,11.28075 -20.12874,22.2744 -29.94727,32.98047 -9.81853,10.70606 -19.43715,21.12413 -28.75,31.25 -9.31284,10.12586 -18.31921,19.95985 -26.91211,29.5 -4.29644,4.77007 -8.49012,9.46723 -12.5664,14.08984 -2.91571,3.30649 -5.69502,6.53099 -8.48633,9.76172 a 409.60335,412.36592 7.8407079e-5 0 0 6.50976,-2.47656 409.60335,412.36592 7.8407079e-5 0 0 11.88868,-4.95703 409.60335,412.36592 7.8407079e-5 0 0 11.72656,-5.33203 409.60335,412.36592 7.8407079e-5 0 0 11.55664,-5.69922 409.60335,412.36592 7.8407079e-5 0 0 11.37109,-6.06055 409.60335,412.36592 7.8407079e-5 0 0 11.17774,-6.41992 409.60335,412.36592 7.8407079e-5 0 0 10.9707,-6.76758 409.60335,412.36592 7.8407079e-5 0 0 10.75391,-7.11328 409.60335,412.36592 7.8407079e-5 0 0 10.52929,-7.44727 409.60335,412.36592 7.8407079e-5 0 0 10.28907,-7.77929 409.60335,412.36592 7.8407079e-5 0 0 10.04296,-8.09961 409.60335,412.36592 7.8407079e-5 0 0 9.78321,-8.41211 409.60335,412.36592 7.8407079e-5 0 0 9.51758,-8.71875 409.60335,412.36592 7.8407079e-5 0 0 9.24023,-9.01563 409.60335,412.36592 7.8407079e-5 0 0 8.95508,-9.30273 409.60335,412.36592 7.8407079e-5 0 0 8.66015,-9.58203 409.60335,412.36592 7.8407079e-5 0 0 8.35743,-9.84961 409.60335,412.36592 7.8407079e-5 0 0 8.04492,-10.10938 409.60335,412.36592 7.8407079e-5 0 0 7.72656,-10.35937 409.60335,412.36592 7.8407079e-5 0 0 7.39844,-10.59961 409.60335,412.36592 7.8407079e-5 0 0 7.06445,-10.82617 409.60335,412.36592 7.8407079e-5 0 0 6.72266,-11.04688 409.60335,412.36592 7.8407079e-5 0 0 6.375,-11.25195 409.60335,412.36592 7.8407079e-5 0 0 6.02148,-11.44922 409.60335,412.36592 7.8407079e-5 0 0 5.66211,-11.63281 409.60335,412.36592 7.8407079e-5 0 0 5.29492,-11.80664 409.60335,412.36592 7.8407079e-5 0 0 4.92383,-11.96875 409.60335,412.36592 7.8407079e-5 0 0 4.54883,-12.11719 409.60335,412.36592 7.8407079e-5 0 0 4.16797,-12.25586 409.60335,412.36592 7.8407079e-5 0 0 3.7832,-12.38086 409.60335,412.36592 7.8407079e-5 0 0 3.39453,-12.49609 409.60335,412.36592 7.8407079e-5 0 0 3.00391,-12.59571 409.60335,412.36592 7.8407079e-5 0 0 2.60937,-12.68554 409.60335,412.36592 7.8407079e-5 0 0 2.21289,-12.76172 409.60335,412.36592 7.8407079e-5 0 0 0.2461,-1.73828 z"
           transform="scale(0.26458333)" />
      </g>
      <text
         xml:space="preserve"
         transform="matrix(0.21725576,0,0,0.21725576,62.863836,-7.2421508)"
         id="text39206-4"
         style="font-style:normal;font-weight:normal;font-size:266.667px;line-height:1.25;font-family:sans-serif;white-space:pre;shape-inside:url(#rect39208-8);fill:#023296;fill-opacity:1;stroke:#023296;stroke-opacity:1"><tspan
           x="297.71289"
           y="502.49833"
           id="tspan160986"><tspan
             style="font-style:italic;-inkscape-font-specification:'sans-serif Italic';fill:#000000;stroke:none"
             id="tspan160984">fcm</tspan></tspan></text>
    </g>
  </g>
</svg>
